<?xml version="1.0" encoding="iso-8859-1"?>
<!-- Generator: Adobe Illustrator 19.0.0, SVG Export Plug-In . SVG Version: 6.00 Build 0)  -->
<svg xmlns="http://www.w3.org/2000/svg" xmlns:xlink="http://www.w3.org/1999/xlink" version="1.1" id="Capa_1" x="0px" y="0px" viewBox="0 0 469.333 469.333" style="enable-background:new 0 0 469.333 469.333;" xml:space="preserve">
<path style="fill:#303C42;" d="M10.667,469.333c-1.375,0-2.76-0.26-4.083-0.813C2.594,466.875,0,462.979,0,458.667v-416  C0,19.135,19.135,0,42.667,0h384c23.531,0,42.667,19.135,42.667,42.667V320c0,23.531-19.135,42.667-42.667,42.667H121.75  L18.208,466.208C16.167,468.25,13.438,469.333,10.667,469.333z"/>
<path style="fill:#1E88E5;" d="M42.667,21.333c-11.76,0-21.333,9.573-21.333,21.333v390.25l88.458-88.458  c2-2,4.708-3.125,7.542-3.125h309.333c11.76,0,21.333-9.573,21.333-21.333V42.667c0-11.76-9.573-21.333-21.333-21.333H42.667z"/>
<path style="fill:#303C42;" d="M138.667,266.667h128c15.5,0,28.458-11.063,31.385-25.708l49.177,24.583  c1.51,0.75,3.135,1.125,4.771,1.125c1.948,0,3.896-0.542,5.604-1.583c3.146-1.958,5.063-5.396,5.063-9.083V106.667  c0-3.688-1.917-7.125-5.063-9.083c-3.156-1.938-7.073-2.125-10.375-0.458l-49.177,24.583C295.125,107.063,282.167,96,266.667,96  h-128c-31.104,0-32,76.604-32,85.333C106.667,190.063,107.563,266.667,138.667,266.667z"/>
<path style="fill:#78909C;" d="M138.667,117.333h128c5.885,0,10.667,4.792,10.667,10.667v10.667c0,3.688,1.917,7.125,5.063,9.083  c3.125,1.896,7.052,2.083,10.375,0.458l48.563-24.292V238.75l-48.563-24.292c-3.302-1.646-7.229-1.479-10.375,0.458  c-3.146,1.958-5.063,5.396-5.063,9.083v10.667c0,5.875-4.781,10.667-10.667,10.667H140.031c-4.375-4.479-12.031-26.917-12.031-64  C128,142.646,136.333,119.917,138.667,117.333z"/>
<path style="opacity:0.1;enable-background:new    ;" d="M282.396,182.908c-3.146,1.958-5.063,5.396-5.063,9.083v10.667  c0,5.875-4.781,10.667-10.667,10.667H130.201c2.594,17.923,6.918,29.026,9.831,32.008h126.635c5.885,0,10.667-4.792,10.667-10.667  V224c0-3.688,1.917-7.125,5.063-9.083c3.146-1.938,7.073-2.104,10.375-0.458l48.563,24.292v-32.008l-48.563-24.292  C289.469,180.804,285.542,180.971,282.396,182.908z"/>
<linearGradient id="SVGID_1_" gradientUnits="userSpaceOnUse" x1="-56.5235" y1="616.5704" x2="-47.3636" y2="607.4105" gradientTransform="matrix(21.3333 0 0 -21.3333 1430.1112 13315.2227)">
	<stop offset="0" style="stop-color:#000000;stop-opacity:0.1"/>
	<stop offset="1" style="stop-color:#000000;stop-opacity:0"/>
</linearGradient>
<path style="fill:url(#SVGID_1_);" d="M357.604,97.591c3.146,1.958,5.063,5.396,5.063,9.083v149.333  c0,3.688-1.917,7.125-5.063,9.083c-1.708,1.042-3.656,1.583-5.604,1.583c-1.635,0-3.26-0.375-4.771-1.125l-49.177-24.583  c-2.927,14.646-15.885,25.708-31.385,25.708h-128c-5.276,0-9.622-2.333-13.303-6.036l-0.014,0.01l80.685,80.685h220.633  c11.76,0,21.333-9.573,21.333-21.333V187.987L357.604,97.591z"/>
<linearGradient id="SVGID_2_" gradientUnits="userSpaceOnUse" x1="-68.7931" y1="618.8268" x2="-45.4033" y2="607.921" gradientTransform="matrix(21.3333 0 0 -21.3333 1430.1112 13315.2227)">
	<stop offset="0" style="stop-color:#FFFFFF;stop-opacity:0.2"/>
	<stop offset="1" style="stop-color:#FFFFFF;stop-opacity:0"/>
</linearGradient>
<path style="fill:url(#SVGID_2_);" d="M10.667,469.333c-1.375,0-2.76-0.26-4.083-0.813C2.594,466.875,0,462.979,0,458.667v-416  C0,19.135,19.135,0,42.667,0h384c23.531,0,42.667,19.135,42.667,42.667V320c0,23.531-19.135,42.667-42.667,42.667H121.75  L18.208,466.208C16.167,468.25,13.438,469.333,10.667,469.333z"/>
<g>
</g>
<g>
</g>
<g>
</g>
<g>
</g>
<g>
</g>
<g>
</g>
<g>
</g>
<g>
</g>
<g>
</g>
<g>
</g>
<g>
</g>
<g>
</g>
<g>
</g>
<g>
</g>
<g>
</g>
</svg>
