<?xml version="1.0" encoding="iso-8859-1"?>
<!-- Generator: Adobe Illustrator 19.0.0, SVG Export Plug-In . SVG Version: 6.00 Build 0)  -->
<svg xmlns="http://www.w3.org/2000/svg" xmlns:xlink="http://www.w3.org/1999/xlink" version="1.1" id="Capa_1" x="0px" y="0px" viewBox="0 0 512 512" style="enable-background:new 0 0 512 512;" xml:space="preserve">
<path style="fill:#303C42;" d="M394.667,21.333c-64.698,0-117.333,43.063-117.333,96c0,22.49,9.49,43.875,26.906,61.063  l-25.25,39.896c-2.583,4.083-2.104,9.375,1.156,12.927c2.073,2.26,4.948,3.448,7.854,3.448c1.677,0,3.375-0.396,4.927-1.208  l54.677-28.51c15.302,5.563,31.104,8.385,47.063,8.385c64.698,0,117.333-43.063,117.333-96S459.365,21.333,394.667,21.333z"/>
<path style="fill:#29B6F6;" d="M394.667,192c-14.833,0-29.552-2.896-43.74-8.625c-2.896-1.146-6.156-1.021-8.917,0.438  l-23.802,12.406l8.854-13.99c2.875-4.542,1.927-10.5-2.208-13.927c-16.885-13.99-26.188-32.094-26.188-50.969  c0-41.167,43.063-74.667,96-74.667s96,33.5,96,74.667S447.604,192,394.667,192z"/>
<path style="opacity:0.1;enable-background:new    ;" d="M478.06,81.07C479.324,85.897,480,90.888,480,96  c0,41.167-43.063,74.667-96,74.667c-14.833,0-29.552-2.896-43.74-8.625c-2.896-1.146-6.156-1.021-8.917,0.438l-8.094,4.219  c0.585,0.51,1,1.104,1.604,1.604c4.135,3.427,5.083,9.385,2.208,13.927l-8.854,13.99l23.802-12.406  c2.76-1.458,6.021-1.583,8.917-0.438c14.188,5.729,28.906,8.625,43.74,8.625c52.938,0,96-33.5,96-74.667  C490.667,104.108,485.849,91.857,478.06,81.07z"/>
<g>
	<circle style="fill:#303C42;" cx="170.667" cy="234.667" r="85.333"/>
	<path style="fill:#303C42;" d="M302.365,377.813c-30.875-16.646-78.781-36.479-131.698-36.479S69.844,361.167,38.969,377.813   C14.938,390.76,0,416.24,0,444.292V456c0,19.115,15.042,34.667,33.521,34.667h274.292c18.479,0,33.521-15.552,33.521-34.667   v-11.708C341.333,416.24,326.396,390.76,302.365,377.813z"/>
</g>
<g>
	<path style="fill:#1E88E5;" d="M320,456c0,7.354-5.469,13.333-12.188,13.333H33.521c-6.719,0-12.188-5.979-12.188-13.333v-11.708   c0-20.198,10.635-38.479,27.76-47.708c28.708-15.469,73.115-33.917,121.573-33.917s92.865,18.448,121.573,33.917   c17.125,9.229,27.76,27.51,27.76,47.708V456z"/>
	<circle style="fill:#1E88E5;" cx="170.667" cy="234.667" r="64"/>
</g>
<path style="opacity:0.1;enable-background:new    ;" d="M196.9,176.434c3.632,8.026,5.767,16.865,5.767,26.233  c0,35.292-28.708,64-64,64c-9.368,0-18.206-2.137-26.232-5.768c10.051,22.211,32.309,37.768,58.232,37.768c35.292,0,64-28.708,64-64  C234.667,208.743,219.111,186.484,196.9,176.434z"/>
<path style="opacity:0.1;enable-background:new    ;" d="M292.24,396.583c-28.708-15.469-73.115-33.917-121.573-33.917  c-5.396,0-10.72,0.305-16,0.733c42.132,3.414,80.061,19.438,105.573,33.184c17.125,9.229,27.76,27.51,27.76,47.708V456  c0,7.354-5.469,13.333-12.188,13.333h32c6.719,0,12.188-5.979,12.188-13.333v-11.708C320,424.094,309.365,405.813,292.24,396.583z"/>
<linearGradient id="SVGID_1_" gradientUnits="userSpaceOnUse" x1="-42.2481" y1="637.3464" x2="-27.2679" y2="630.3629" gradientTransform="matrix(21.3333 0 0 -21.3333 996.3334 13791.667)">
	<stop offset="0" style="stop-color:#FFFFFF;stop-opacity:0.2"/>
	<stop offset="1" style="stop-color:#FFFFFF;stop-opacity:0"/>
</linearGradient>
<path style="fill:url(#SVGID_1_);" d="M394.667,21.333c-64.698,0-117.333,43.063-117.333,96c0,22.49,9.49,43.875,26.906,61.063  l-25.25,39.896c-2.583,4.083-2.104,9.375,1.156,12.927c2.073,2.26,4.948,3.448,7.854,3.448c1.677,0,3.375-0.396,4.927-1.208  l54.677-28.51c15.302,5.563,31.104,8.385,47.063,8.385c64.698,0,117.333-43.063,117.333-96S459.365,21.333,394.667,21.333z   M170.667,320C217.719,320,256,281.719,256,234.667s-38.281-85.333-85.333-85.333s-85.333,38.281-85.333,85.333  S123.615,320,170.667,320z M302.365,377.813c-30.875-16.646-78.781-36.479-131.698-36.479S69.844,361.167,38.969,377.813  C14.938,390.76,0,416.24,0,444.292V456c0,19.115,15.042,34.667,33.521,34.667h274.292c18.479,0,33.521-15.552,33.521-34.667v-11.708  C341.333,416.24,326.396,390.76,302.365,377.813z"/>
<g>
</g>
<g>
</g>
<g>
</g>
<g>
</g>
<g>
</g>
<g>
</g>
<g>
</g>
<g>
</g>
<g>
</g>
<g>
</g>
<g>
</g>
<g>
</g>
<g>
</g>
<g>
</g>
<g>
</g>
</svg>
