<?xml version="1.0" encoding="iso-8859-1"?>
<!-- Generator: Adobe Illustrator 19.0.0, SVG Export Plug-In . SVG Version: 6.00 Build 0)  -->
<svg xmlns="http://www.w3.org/2000/svg" xmlns:xlink="http://www.w3.org/1999/xlink" version="1.1" id="Capa_1" x="0px" y="0px" viewBox="0 0 512 512" style="enable-background:new 0 0 512 512;" xml:space="preserve">
<circle style="fill:#303C42;" cx="170.667" cy="234.667" r="85.333"/>
<circle style="fill:#1E88E5;" cx="170.667" cy="234.667" r="64"/>
<path style="opacity:0.1;enable-background:new    ;" d="M196.9,176.434c3.632,8.026,5.767,16.865,5.767,26.233  c0,35.292-28.708,64-64,64c-9.368,0-18.206-2.137-26.232-5.768c10.051,22.211,32.309,37.768,58.232,37.768c35.292,0,64-28.708,64-64  C234.667,208.743,219.111,186.484,196.9,176.434z"/>
<path style="fill:#303C42;" d="M302.365,377.813c-30.875-16.646-78.781-36.479-131.698-36.479S69.844,361.167,38.969,377.813  C14.938,390.76,0,416.24,0,444.292V456c0,19.115,15.042,34.667,33.521,34.667h274.292c18.479,0,33.521-15.552,33.521-34.667v-11.708  C341.333,416.24,326.396,390.76,302.365,377.813z"/>
<path style="fill:#1E88E5;" d="M320,456c0,7.354-5.469,13.333-12.188,13.333H33.521c-6.719,0-12.188-5.979-12.188-13.333v-11.708  c0-20.198,10.635-38.479,27.76-47.708c28.708-15.469,73.115-33.917,121.573-33.917s92.865,18.448,121.573,33.917  c17.125,9.229,27.76,27.51,27.76,47.708V456z"/>
<path style="opacity:0.1;enable-background:new    ;" d="M292.24,396.583c-28.708-15.469-73.115-33.917-121.573-33.917  c-5.396,0-10.72,0.305-16,0.733c42.132,3.414,80.061,19.438,105.573,33.184c17.125,9.229,27.76,27.51,27.76,47.708V456  c0,7.354-5.469,13.333-12.188,13.333h32c6.719,0,12.188-5.979,12.188-13.333v-11.708C320,424.094,309.365,405.813,292.24,396.583z"/>
<path style="fill:#303C42;" d="M480,21.333H309.333c-17.646,0-32,14.354-32,32v192c0,4.313,2.594,8.208,6.583,9.854  C285.24,255.74,286.625,256,288,256c2.771,0,5.5-1.083,7.542-3.125l39.542-39.542H480c17.646,0,32-14.354,32-32v-128  C512,35.688,497.646,21.333,480,21.333z"/>
<path style="fill:#29B6F6;" d="M490.667,181.333c0,5.885-4.781,10.667-10.667,10.667H330.667c-2.833,0-5.542,1.125-7.542,3.125  l-24.458,24.458V53.333c0-5.885,4.781-10.667,10.667-10.667H480c5.885,0,10.667,4.781,10.667,10.667V181.333z"/>
<path style="opacity:0.1;enable-background:new    ;" d="M480,42.667h-10.667v121.75c0,5.885-4.781,10.667-10.667,10.667H309.333  c-2.833,0-5.542,1.125-7.542,3.125l-3.125,3.125v38.25l24.458-24.458c2-2,4.708-3.125,7.542-3.125H480  c5.885,0,10.667-4.781,10.667-10.667v-128C490.667,47.448,485.885,42.667,480,42.667z"/>
<linearGradient id="SVGID_1_" gradientUnits="userSpaceOnUse" x1="-41.9903" y1="637.899" x2="-26.0551" y2="630.4658" gradientTransform="matrix(21.3333 0 0 -21.3333 996.3334 13791.667)">
	<stop offset="0" style="stop-color:#FFFFFF;stop-opacity:0.2"/>
	<stop offset="1" style="stop-color:#FFFFFF;stop-opacity:0"/>
</linearGradient>
<path style="fill:url(#SVGID_1_);" d="M170.667,320C217.719,320,256,281.719,256,234.667s-38.281-85.333-85.333-85.333  s-85.333,38.281-85.333,85.333S123.615,320,170.667,320z M302.365,377.813c-30.875-16.646-78.781-36.479-131.698-36.479  S69.844,361.167,38.969,377.813C14.938,390.76,0,416.24,0,444.292V456c0,19.115,15.042,34.667,33.521,34.667h274.292  c18.479,0,33.521-15.552,33.521-34.667v-11.708C341.333,416.24,326.396,390.76,302.365,377.813z M480,21.333H309.333  c-17.646,0-32,14.354-32,32v192c0,4.313,2.594,8.208,6.583,9.854C285.24,255.74,286.625,256,288,256c2.771,0,5.5-1.083,7.542-3.125  l39.542-39.542H480c17.646,0,32-14.354,32-32v-128C512,35.688,497.646,21.333,480,21.333z"/>
<g>
</g>
<g>
</g>
<g>
</g>
<g>
</g>
<g>
</g>
<g>
</g>
<g>
</g>
<g>
</g>
<g>
</g>
<g>
</g>
<g>
</g>
<g>
</g>
<g>
</g>
<g>
</g>
<g>
</g>
</svg>
