<?xml version="1.0" encoding="iso-8859-1"?>
<!-- Generator: Adobe Illustrator 19.0.0, SVG Export Plug-In . SVG Version: 6.00 Build 0)  -->
<svg xmlns="http://www.w3.org/2000/svg" xmlns:xlink="http://www.w3.org/1999/xlink" version="1.1" id="Capa_1" x="0px" y="0px" viewBox="0 0 512 512" style="enable-background:new 0 0 512 512;" xml:space="preserve">
<g>
	<circle style="fill:#303C42;" cx="21.333" cy="469.333" r="21.333"/>
	<circle style="fill:#303C42;" cx="74.667" cy="416" r="32"/>
</g>
<circle style="fill:#4FC3F7;" cx="74.667" cy="416" r="10.667"/>
<path style="fill:#303C42;" d="M394.667,106.667c-5.646,0-11.438,0.5-17.563,1.521C359.646,56.563,311.229,21.333,256,21.333  c-37,0-71.646,15.75-96,43.438C156.5,64.313,152.958,64,149.333,64C92.5,64,45.896,108.688,42.917,165.76  C16.313,183.531,0,213.49,0,245.333c0,43.948,29.938,82.063,72.042,92.865c16.146,40.406,55.042,67.135,98.625,67.135  c32.542,0,62.875-14.76,83.063-39.948C273.729,377.594,296.438,384,320,384c37.813,0,73.125-16.438,97.563-45.26  C472.521,327.885,512,280.26,512,224C512,159.302,459.354,106.667,394.667,106.667z"/>
<path style="fill:#4FC3F7;" d="M410.104,318.406c-2.625,0.427-4.979,1.813-6.646,3.885c-20.417,25.656-50.833,40.375-83.458,40.375  c-22.583,0-44.229-7.073-62.625-20.469c-2.375-1.729-5.313-2.396-8.208-1.865c-2.875,0.531-5.417,2.219-7,4.677  c-15.875,24.417-42.604,38.99-71.5,38.99c-36.438,0-68.792-23.438-80.521-58.333c-1.229-3.656-4.333-6.365-8.125-7.083  c-35.167-6.677-60.688-37.479-60.688-73.25c0-26.677,14-50.729,37.458-64.333c3.292-1.906,5.208-6.531,5.208-10.333  c0-47.052,38.271-85.333,85.333-85.333c4.583,0,8.979,0.698,13.375,1.385c3.771,0.594,7.604-0.885,9.979-3.885  C193.083,57.313,223.458,42.667,256,42.667c48.854,0,91.354,33.115,103.313,80.531c1.417,5.646,7.042,9.188,12.833,7.76  c8.375-2.021,15.521-2.958,22.521-2.958c52.938,0,96,43.063,96,96C490.667,271.115,456.792,310.823,410.104,318.406z"/>
<path style="opacity:0.1;enable-background:new    ;" d="M450.831,146.503c11.509,15.832,18.503,35.137,18.503,56.164  c0,47.115-33.875,86.823-80.563,94.406c-2.625,0.427-4.979,1.813-6.646,3.885c-20.417,25.656-50.833,40.375-83.458,40.375  c-22.583,0-44.229-7.073-62.625-20.469c-2.375-1.729-5.313-2.396-8.208-1.865c-2.875,0.531-5.417,2.219-7,4.677  c-15.875,24.417-42.604,38.99-71.5,38.99c-17.608,0-34.198-5.572-48.033-15.165C116.952,369.932,142.533,384,170.667,384  c28.896,0,55.625-14.573,71.5-38.99c1.583-2.458,4.125-4.146,7-4.677c2.896-0.531,5.833,0.135,8.208,1.865  c18.396,13.396,40.042,20.469,62.625,20.469c32.625,0,63.042-14.719,83.458-40.375c1.667-2.073,4.021-3.458,6.646-3.885  c46.688-7.583,80.563-47.292,80.563-94.406C490.667,192.09,474.855,163.967,450.831,146.503z"/>
<linearGradient id="SVGID_1_" gradientUnits="userSpaceOnUse" x1="-46.0082" y1="637.4515" x2="-25.8369" y2="628.0417" gradientTransform="matrix(21.3333 0 0 -21.3333 996.3334 13791.667)">
	<stop offset="0" style="stop-color:#FFFFFF;stop-opacity:0.2"/>
	<stop offset="1" style="stop-color:#FFFFFF;stop-opacity:0"/>
</linearGradient>
<path style="fill:url(#SVGID_1_);" d="M21.333,448C9.563,448,0,457.573,0,469.333s9.563,21.333,21.333,21.333  s21.333-9.573,21.333-21.333S33.104,448,21.333,448z M74.667,384c-17.646,0-32,14.354-32,32c0,17.646,14.354,32,32,32  s32-14.354,32-32C106.667,398.354,92.313,384,74.667,384z M394.667,106.667c-5.646,0-11.438,0.5-17.563,1.521  C359.646,56.563,311.229,21.333,256,21.333c-37,0-71.646,15.75-96,43.438C156.5,64.313,152.958,64,149.333,64  C92.5,64,45.896,108.688,42.917,165.76C16.313,183.531,0,213.49,0,245.333c0,43.948,29.938,82.063,72.042,92.865  c16.146,40.406,55.042,67.135,98.625,67.135c32.542,0,62.875-14.76,83.063-39.948C273.729,377.594,296.438,384,320,384  c37.813,0,73.125-16.438,97.563-45.26C472.521,327.885,512,280.26,512,224C512,159.302,459.354,106.667,394.667,106.667z"/>
<g>
</g>
<g>
</g>
<g>
</g>
<g>
</g>
<g>
</g>
<g>
</g>
<g>
</g>
<g>
</g>
<g>
</g>
<g>
</g>
<g>
</g>
<g>
</g>
<g>
</g>
<g>
</g>
<g>
</g>
</svg>
