<?xml version="1.0" encoding="iso-8859-1"?>
<!-- Generator: Adobe Illustrator 19.0.0, SVG Export Plug-In . SVG Version: 6.00 Build 0)  -->
<svg xmlns="http://www.w3.org/2000/svg" xmlns:xlink="http://www.w3.org/1999/xlink" version="1.1" id="Capa_1" x="0px" y="0px" viewBox="0 0 512 512" style="enable-background:new 0 0 512 512;" xml:space="preserve">
<path style="fill:#303C42;" d="M256,21.333c-141.167,0-256,86.135-256,192s114.833,192,256,192s256-86.135,256-192  S397.167,21.333,256,21.333z"/>
<path style="fill:#4FC3F7;" d="M256,384c-129.396,0-234.667-76.563-234.667-170.667S126.604,42.667,256,42.667  s234.667,76.563,234.667,170.667S385.396,384,256,384z"/>
<path style="opacity:0.1;enable-background:new    ;" d="M443.788,111.421c9.456,18.488,14.879,38.392,14.879,59.246  c0,94.104-105.271,170.667-234.667,170.667c-76.837,0-144.956-27.117-187.788-68.754C69.428,337.522,155.279,384,256,384  c129.396,0,234.667-76.563,234.667-170.667C490.667,175.109,473.087,139.901,443.788,111.421z"/>
<g>
	<circle style="fill:#303C42;" cx="21.333" cy="469.333" r="21.333"/>
	<circle style="fill:#303C42;" cx="74.667" cy="416" r="32"/>
</g>
<circle style="fill:#4FC3F7;" cx="74.667" cy="416" r="10.667"/>
<linearGradient id="SVGID_1_" gradientUnits="userSpaceOnUse" x1="-46.6082" y1="638.2186" x2="-25.7245" y2="628.4767" gradientTransform="matrix(21.3333 0 0 -21.3333 996.3334 13791.667)">
	<stop offset="0" style="stop-color:#FFFFFF;stop-opacity:0.2"/>
	<stop offset="1" style="stop-color:#FFFFFF;stop-opacity:0"/>
</linearGradient>
<path style="fill:url(#SVGID_1_);" d="M256,21.333c-141.167,0-256,86.135-256,192s114.833,192,256,192s256-86.135,256-192  S397.167,21.333,256,21.333z M21.333,448C9.563,448,0,457.573,0,469.333s9.563,21.333,21.333,21.333s21.333-9.573,21.333-21.333  S33.104,448,21.333,448z M74.667,384c-17.646,0-32,14.354-32,32c0,17.646,14.354,32,32,32s32-14.354,32-32  C106.667,398.354,92.313,384,74.667,384z"/>
<g>
</g>
<g>
</g>
<g>
</g>
<g>
</g>
<g>
</g>
<g>
</g>
<g>
</g>
<g>
</g>
<g>
</g>
<g>
</g>
<g>
</g>
<g>
</g>
<g>
</g>
<g>
</g>
<g>
</g>
</svg>
