<?xml version="1.0" encoding="iso-8859-1"?>
<!-- Generator: Adobe Illustrator 19.0.0, SVG Export Plug-In . SVG Version: 6.00 Build 0)  -->
<svg xmlns="http://www.w3.org/2000/svg" xmlns:xlink="http://www.w3.org/1999/xlink" version="1.1" id="Capa_1" x="0px" y="0px" viewBox="0 0 469.333 469.333" style="enable-background:new 0 0 469.333 469.333;" xml:space="preserve">
<path style="fill:#303C42;" d="M10.667,469.333c-1.375,0-2.76-0.26-4.083-0.813C2.594,466.875,0,462.979,0,458.667v-416  C0,19.135,19.135,0,42.667,0h384c23.531,0,42.667,19.135,42.667,42.667V320c0,23.531-19.135,42.667-42.667,42.667H121.75  L18.208,466.208C16.167,468.25,13.438,469.333,10.667,469.333z"/>
<path style="fill:#1E88E5;" d="M42.667,21.333c-11.76,0-21.333,9.573-21.333,21.333v390.25l88.458-88.458  c2-2,4.708-3.125,7.542-3.125h309.333c11.76,0,21.333-9.573,21.333-21.333V42.667c0-11.76-9.573-21.333-21.333-21.333H42.667z"/>
<path style="fill:#303C42;" d="M213.346,234.671c16.735,0,32.038-5.735,44.503-15.074l54.611,54.611  c2.083,2.083,4.812,3.125,7.541,3.125s5.458-1.042,7.541-3.125c2.087-2.087,3.129-4.823,3.125-7.557  c-0.004-2.724-1.046-5.446-3.125-7.525l-54.613-54.613c9.339-12.466,15.075-27.772,15.075-44.512  c0-41.173-33.496-74.669-74.659-74.669c-41.183,0-74.679,33.496-74.679,74.669S172.163,234.671,213.346,234.671z"/>
<path style="opacity:0.7;fill:#BBDEFB;enable-background:new    ;" d="M213.354,106.667c29.417,0,53.333,23.927,53.333,53.344  c0,14.66-5.949,27.948-15.549,37.599c-0.035,0.034-0.083,0.044-0.117,0.078c-0.034,0.034-0.043,0.081-0.077,0.115  c-9.648,9.602-22.931,15.552-37.59,15.552c-29.417,0-53.354-23.927-53.354-53.344S183.938,106.667,213.354,106.667z"/>
<path style="opacity:0.2;fill:#FFFFFF;enable-background:new    ;" d="M224.033,170.656c5.888,0,10.675,4.789,10.675,10.677  c0,2.934-1.191,5.594-3.112,7.526l-0.023,0.016c-0.007,0.007-0.009,0.016-0.015,0.023c-1.931,1.922-4.59,3.113-7.524,3.113  c-5.888,0-10.679-4.789-10.679-10.677C213.354,175.445,218.145,170.656,224.033,170.656z"/>
<path style="opacity:0.1;enable-background:new    ;" d="M170.688,170.656c0-29.417,23.938-53.344,53.354-53.344  c11.93,0,22.839,4.074,31.73,10.714c-9.743-12.891-25.047-21.359-42.418-21.359c-29.417,0-53.354,23.927-53.354,53.344  c0,17.479,8.569,32.88,21.599,42.615C174.846,193.689,170.688,182.694,170.688,170.656z"/>
<linearGradient id="SVGID_1_" gradientUnits="userSpaceOnUse" x1="-57.0396" y1="616.6298" x2="-47.5919" y2="607.1821" gradientTransform="matrix(21.3333 0 0 -21.3333 1430.1112 13315.2227)">
	<stop offset="0" style="stop-color:#000000;stop-opacity:0.1"/>
	<stop offset="1" style="stop-color:#000000;stop-opacity:0"/>
</linearGradient>
<path style="fill:url(#SVGID_1_);" d="M273.033,115.227l-0.186,0.16c9.387,12.484,15.159,27.828,15.159,44.616  c0,16.74-5.737,32.046-15.076,44.512l54.612,54.612c2.079,2.079,3.121,4.802,3.125,7.525c0.004,2.734-1.038,5.47-3.125,7.557  c-2.083,2.083-4.811,3.125-7.54,3.125s-5.458-1.042-7.54-3.125l-54.612-54.611c-12.465,9.339-27.768,15.073-44.503,15.073  c-20.495,0-39.069-8.315-52.576-21.723l128.385,128.385h137.51c11.76,0,21.333-9.573,21.333-21.333v-29.805L273.033,115.227z"/>
<linearGradient id="SVGID_2_" gradientUnits="userSpaceOnUse" x1="-68.7931" y1="618.8268" x2="-45.4033" y2="607.921" gradientTransform="matrix(21.3333 0 0 -21.3333 1430.1112 13315.2227)">
	<stop offset="0" style="stop-color:#FFFFFF;stop-opacity:0.2"/>
	<stop offset="1" style="stop-color:#FFFFFF;stop-opacity:0"/>
</linearGradient>
<path style="fill:url(#SVGID_2_);" d="M10.667,469.333c-1.375,0-2.76-0.26-4.083-0.813C2.594,466.875,0,462.979,0,458.667v-416  C0,19.135,19.135,0,42.667,0h384c23.531,0,42.667,19.135,42.667,42.667V320c0,23.531-19.135,42.667-42.667,42.667H121.75  L18.208,466.208C16.167,468.25,13.438,469.333,10.667,469.333z"/>
<g>
</g>
<g>
</g>
<g>
</g>
<g>
</g>
<g>
</g>
<g>
</g>
<g>
</g>
<g>
</g>
<g>
</g>
<g>
</g>
<g>
</g>
<g>
</g>
<g>
</g>
<g>
</g>
<g>
</g>
</svg>
