<?xml version="1.0" encoding="iso-8859-1"?>
<!-- Generator: Adobe Illustrator 19.0.0, SVG Export Plug-In . SVG Version: 6.00 Build 0)  -->
<svg xmlns="http://www.w3.org/2000/svg" xmlns:xlink="http://www.w3.org/1999/xlink" version="1.1" id="Capa_1" x="0px" y="0px" viewBox="0 0 469.333 469.333" style="enable-background:new 0 0 469.333 469.333;" xml:space="preserve">
<path style="fill:#303C42;" d="M10.667,469.333c-1.375,0-2.76-0.26-4.083-0.813C2.594,466.875,0,462.979,0,458.667v-416  C0,19.135,19.135,0,42.667,0h384c23.531,0,42.667,19.135,42.667,42.667V320c0,23.531-19.135,42.667-42.667,42.667H121.75  L18.208,466.208C16.167,468.25,13.438,469.333,10.667,469.333z"/>
<path style="fill:#1E88E5;" d="M42.667,21.333c-11.76,0-21.333,9.573-21.333,21.333v390.25l88.458-88.458  c2-2,4.708-3.125,7.542-3.125h309.333c11.76,0,21.333-9.573,21.333-21.333V42.667c0-11.76-9.573-21.333-21.333-21.333H42.667z"/>
<path style="fill:#303C42;" d="M330.666,266.667c-5.896,0-10.667-4.771-10.667-10.667c0-12.302-30.26-29.781-85.333-31.802v23.021  c0,10.719-8.531,19.448-19.01,19.448c-4.865,0-9.5-1.917-13.052-5.396c-5.635-5.479-13.469-12.896-22.021-20.979  c-17.198-16.26-36.677-34.688-47.979-46.615c-2.979-3.156-4.604-7.531-4.604-12.344s1.625-9.188,4.583-12.323  c11.323-11.948,30.802-30.375,48-46.635c8.552-8.083,16.385-15.5,22.042-21c3.531-3.458,8.167-5.375,13.031-5.375  c10.479,0,19.01,8.729,19.01,19.448v23.698c59.719,5.406,106.667,55.75,106.667,116.854  C341.333,261.896,336.562,266.667,330.666,266.667z"/>
<path style="fill:#7CB342;" d="M150.312,181.333c11.146,11.521,29.031,28.427,44.927,43.458c6.698,6.323,12.958,12.25,18.094,17.177  v-28.635c0-5.896,4.771-10.667,10.667-10.667c36.99,0,68,6.292,88.844,16.948C298.468,184.667,264.062,160,224,160  c-5.896,0-10.667-4.771-10.667-10.667v-29.271c-4.271,4.74-10.938,11.042-18.094,17.813  C179.354,152.896,161.479,169.802,150.312,181.333z"/>
<linearGradient id="SVGID_1_" gradientUnits="userSpaceOnUse" x1="-58.2891" y1="617.2008" x2="-47.9335" y2="606.8412" gradientTransform="matrix(21.3333 0 0 -21.3333 1430.1112 13315.2227)">
	<stop offset="0" style="stop-color:#000000;stop-opacity:0.1"/>
	<stop offset="1" style="stop-color:#000000;stop-opacity:0"/>
</linearGradient>
<path style="fill:url(#SVGID_1_);" d="M234.667,139.146c16.143,1.461,31.206,6.428,44.807,13.781l-48.751-48.75  c2.309,3.22,3.944,6.983,3.944,11.271V139.146z M310.454,176.764c19.163,20.892,30.879,48.719,30.879,79.236  c0,5.896-4.771,10.667-10.667,10.667c-5.896,0-10.667-4.771-10.667-10.667c0-12.302-30.26-29.781-85.333-31.802v23.021  c0,10.719-8.531,19.448-19.01,19.448c-2.833,0-5.505-0.823-8.014-2.053l-0.014,0.135l76.585,76.585h142.454  c11.76,0,21.333-9.573,21.333-21.333v-5.69L310.454,176.764z"/>
<linearGradient id="SVGID_2_" gradientUnits="userSpaceOnUse" x1="-68.7931" y1="618.8268" x2="-45.4033" y2="607.921" gradientTransform="matrix(21.3333 0 0 -21.3333 1430.1112 13315.2227)">
	<stop offset="0" style="stop-color:#FFFFFF;stop-opacity:0.2"/>
	<stop offset="1" style="stop-color:#FFFFFF;stop-opacity:0"/>
</linearGradient>
<path style="fill:url(#SVGID_2_);" d="M10.667,469.333c-1.375,0-2.76-0.26-4.083-0.813C2.594,466.875,0,462.979,0,458.667v-416  C0,19.135,19.135,0,42.667,0h384c23.531,0,42.667,19.135,42.667,42.667V320c0,23.531-19.135,42.667-42.667,42.667H121.75  L18.208,466.208C16.167,468.25,13.438,469.333,10.667,469.333z"/>
<g>
</g>
<g>
</g>
<g>
</g>
<g>
</g>
<g>
</g>
<g>
</g>
<g>
</g>
<g>
</g>
<g>
</g>
<g>
</g>
<g>
</g>
<g>
</g>
<g>
</g>
<g>
</g>
<g>
</g>
</svg>
