<?xml version="1.0" encoding="iso-8859-1"?>
<!-- Generator: Adobe Illustrator 19.0.0, SVG Export Plug-In . SVG Version: 6.00 Build 0)  -->
<svg xmlns="http://www.w3.org/2000/svg" xmlns:xlink="http://www.w3.org/1999/xlink" version="1.1" id="Capa_1" x="0px" y="0px" viewBox="0 0 469.333 469.333" style="enable-background:new 0 0 469.333 469.333;" xml:space="preserve">
<path style="fill:#303C42;" d="M10.667,469.333c-1.375,0-2.76-0.26-4.083-0.813C2.594,466.875,0,462.979,0,458.667v-416  C0,19.135,19.135,0,42.667,0h384c23.531,0,42.667,19.135,42.667,42.667V320c0,23.531-19.135,42.667-42.667,42.667H121.75  L18.208,466.208C16.167,468.25,13.438,469.333,10.667,469.333z"/>
<path style="fill:#1E88E5;" d="M42.667,21.333c-11.76,0-21.333,9.573-21.333,21.333v390.25l88.458-88.458  c2-2,4.708-3.125,7.542-3.125h309.333c11.76,0,21.333-9.573,21.333-21.333V42.667c0-11.76-9.573-21.333-21.333-21.333H42.667z"/>
<path style="fill:#303C42;" d="M256,139.177v-23.719C256,104.729,247.458,96,236.979,96c-4.833,0-9.458,1.906-13.021,5.375  c-3.134,3.059-7.035,6.784-11.273,10.807C211.104,103.07,203.658,96,194.313,96c-4.833,0-9.458,1.906-13.021,5.375  c-5.646,5.51-13.5,12.927-22.063,21.021c-17.188,16.25-36.667,34.677-47.958,46.594c-2.979,3.115-4.604,7.5-4.604,12.344  s1.625,9.24,4.583,12.354c11.354,11.948,30.896,30.427,48.125,46.729c8.5,8.042,16.292,15.406,21.917,20.875  c3.563,3.469,8.188,5.375,13.021,5.375c9.342,0,16.789-7.068,18.371-16.169c4.234,4.02,8.137,7.743,11.275,10.794  c3.563,3.469,8.188,5.375,13.021,5.375c10.479,0,19.021-8.729,19.021-19.448v-23c40.313,1.708,64,13.323,64,31.781  c0,5.896,4.771,10.667,10.667,10.667c5.896,0,10.667-4.771,10.667-10.667C341.333,188.083,308.938,144.302,256,139.177z"/>
<g>
	<path style="fill:#7CB342;" d="M171.646,181.344c11.208,11.573,29.125,28.51,45.063,43.573   c6.646,6.281,12.854,12.167,17.958,17.063v-28.646c0-5.896,4.771-10.667,10.667-10.667c33.438,0,55.354,5.552,69.667,13.292   C307.458,188.24,289.042,160,245.333,160c-5.896,0-10.667-4.771-10.667-10.667v-29.281c-4.271,4.75-10.938,11.063-18.104,17.844   C200.688,152.917,182.813,169.802,171.646,181.344z"/>
	<path style="fill:#7CB342;" d="M153.917,193.688c-2.958-3.115-4.583-7.51-4.583-12.354s1.625-9.229,4.604-12.344   c9.168-9.676,23.707-23.613,38.063-37.221v-11.716c-4.271,4.75-10.938,11.063-18.104,17.844   c-15.875,15.021-33.75,31.906-44.917,43.448c11.208,11.573,29.125,28.51,45.063,43.573c6.646,6.281,12.854,12.167,17.958,17.063   v-11.077C177.645,217.288,163.111,203.362,153.917,193.688z"/>
</g>
<linearGradient id="SVGID_1_" gradientUnits="userSpaceOnUse" x1="-58.3374" y1="617.0001" x2="-48.0556" y2="606.7184" gradientTransform="matrix(21.3333 0 0 -21.3333 1430.1112 13315.2227)">
	<stop offset="0" style="stop-color:#000000;stop-opacity:0.1"/>
	<stop offset="1" style="stop-color:#000000;stop-opacity:0"/>
</linearGradient>
<path style="fill:url(#SVGID_1_);" d="M250.846,102.353c3.133,3.469,5.154,8.021,5.154,13.105v23.719  c52.938,5.125,85.333,48.906,85.333,116.823c0,5.896-4.771,10.667-10.667,10.667c-5.896,0-10.667-4.771-10.667-10.667  c0-18.458-23.688-30.073-64-31.781v23c0,10.719-8.542,19.448-19.021,19.448c-4.833,0-9.458-1.906-13.021-5.375  c-3.138-3.051-7.04-6.775-11.275-10.794c-1.582,9.102-9.029,16.169-18.371,16.169c-4.833,0-9.458-1.906-13.021-5.375  c-5.625-5.469-13.417-12.833-21.917-20.875c-10.508-9.943-21.681-20.546-31.527-30.132l131.048,131.048h167.771  c11.76,0,21.333-9.573,21.333-21.333v-20.493L250.846,102.353z"/>
<linearGradient id="SVGID_2_" gradientUnits="userSpaceOnUse" x1="-68.7931" y1="618.8268" x2="-45.4033" y2="607.921" gradientTransform="matrix(21.3333 0 0 -21.3333 1430.1112 13315.2227)">
	<stop offset="0" style="stop-color:#FFFFFF;stop-opacity:0.2"/>
	<stop offset="1" style="stop-color:#FFFFFF;stop-opacity:0"/>
</linearGradient>
<path style="fill:url(#SVGID_2_);" d="M10.667,469.333c-1.375,0-2.76-0.26-4.083-0.813C2.594,466.875,0,462.979,0,458.667v-416  C0,19.135,19.135,0,42.667,0h384c23.531,0,42.667,19.135,42.667,42.667V320c0,23.531-19.135,42.667-42.667,42.667H121.75  L18.208,466.208C16.167,468.25,13.438,469.333,10.667,469.333z"/>
<g>
</g>
<g>
</g>
<g>
</g>
<g>
</g>
<g>
</g>
<g>
</g>
<g>
</g>
<g>
</g>
<g>
</g>
<g>
</g>
<g>
</g>
<g>
</g>
<g>
</g>
<g>
</g>
<g>
</g>
</svg>
