<?xml version="1.0" encoding="iso-8859-1"?>
<!-- Generator: Adobe Illustrator 19.0.0, SVG Export Plug-In . SVG Version: 6.00 Build 0)  -->
<svg xmlns="http://www.w3.org/2000/svg" xmlns:xlink="http://www.w3.org/1999/xlink" version="1.1" id="Capa_1" x="0px" y="0px" viewBox="0 0 512 512" style="enable-background:new 0 0 512 512;" xml:space="preserve">
<path style="fill:#303C42;" d="M10.667,469.333c-1.375,0-2.76-0.26-4.083-0.813C2.594,466.875,0,462.979,0,458.667v-416  C0,19.135,19.135,0,42.667,0h384c23.531,0,42.667,19.135,42.667,42.667V320c0,23.531-19.135,42.667-42.667,42.667H121.75  L18.208,466.208C16.167,468.25,13.438,469.333,10.667,469.333z"/>
<path style="fill:#1E88E5;" d="M42.667,21.333c-11.76,0-21.333,9.573-21.333,21.333v390.25l88.458-88.458  c2-2,4.708-3.125,7.542-3.125h309.333c11.76,0,21.333-9.573,21.333-21.333V42.667c0-11.76-9.573-21.333-21.333-21.333H42.667z"/>
<circle style="fill:#303C42;" cx="394.667" cy="394.667" r="117.333"/>
<circle style="fill:#E6E6E6;" cx="394.667" cy="394.667" r="96"/>
<g>
	<path style="fill:#303C42;" d="M368.583,382.208c4.906-3.271,6.229-9.885,2.958-14.792c-3.281-4.917-9.875-6.25-14.792-2.958   l-9.906,6.604c8.729-17.604,26.885-29.729,47.823-29.729c17.75,0,34.281,8.792,44.24,23.521c3.281,4.875,9.927,6.177,14.802,2.865   c4.885-3.292,6.167-9.927,2.865-14.802C442.656,332.302,419.51,320,394.667,320C353.5,320,320,353.5,320,394.667   c0,3.938,2.167,7.552,5.635,9.406c1.573,0.844,3.302,1.26,5.031,1.26c2.073,0,4.135-0.604,5.917-1.792L368.583,382.208z"/>
	<path style="fill:#303C42;" d="M463.698,385.26c-3.469-1.854-7.688-1.646-10.948,0.531l-32,21.333   c-4.906,3.271-6.229,9.885-2.958,14.792c3.25,4.885,9.875,6.208,14.792,2.958l9.906-6.604C433.76,435.875,415.604,448,394.667,448   c-17.75,0-34.281-8.792-44.24-23.521c-3.281-4.885-9.927-6.167-14.802-2.865c-4.885,3.292-6.167,9.927-2.865,14.802   c13.917,20.615,37.063,32.917,61.906,32.917c41.167,0,74.667-33.5,74.667-74.667C469.333,390.729,467.167,387.115,463.698,385.26z"/>
</g>
<linearGradient id="SVGID_1_" gradientUnits="userSpaceOnUse" x1="-48.4597" y1="641.1605" x2="-21.7898" y2="628.7245" gradientTransform="matrix(21.3333 0 0 -21.3333 996.3334 13791.667)">
	<stop offset="0" style="stop-color:#FFFFFF;stop-opacity:0.2"/>
	<stop offset="1" style="stop-color:#FFFFFF;stop-opacity:0"/>
</linearGradient>
<path style="fill:url(#SVGID_1_);" d="M469.333,304.228V42.667C469.333,19.135,450.198,0,426.667,0h-384C19.135,0,0,19.135,0,42.667  v416c0,4.313,2.594,8.208,6.583,9.854c1.323,0.552,2.708,0.813,4.083,0.813c2.771,0,5.5-1.083,7.542-3.125L121.75,362.667h160.132  c-2.896,10.189-4.548,20.896-4.548,32c0,64.698,52.635,117.333,117.333,117.333S512,459.365,512,394.667  C512,358.31,495.376,325.767,469.333,304.228z"/>
<g>
</g>
<g>
</g>
<g>
</g>
<g>
</g>
<g>
</g>
<g>
</g>
<g>
</g>
<g>
</g>
<g>
</g>
<g>
</g>
<g>
</g>
<g>
</g>
<g>
</g>
<g>
</g>
<g>
</g>
</svg>
