<?xml version="1.0" encoding="iso-8859-1"?>
<!-- Generator: Adobe Illustrator 19.0.0, SVG Export Plug-In . SVG Version: 6.00 Build 0)  -->
<svg xmlns="http://www.w3.org/2000/svg" xmlns:xlink="http://www.w3.org/1999/xlink" version="1.1" id="Capa_1" x="0px" y="0px" viewBox="0 0 512 512" style="enable-background:new 0 0 512 512;" xml:space="preserve">
<path style="fill:#303C42;" d="M462.813,406.271C494.625,373.323,512,331.729,512,288c0-82.035-61.246-153.452-149.323-174.876  c-37.107-42.772-94.949-70.457-160.01-70.457C90.917,42.667,0,124.01,0,224c0,43.729,17.375,85.323,49.188,118.271l-45.958,44.75  c-3.104,3.031-4.083,7.646-2.437,11.667c1.625,4.021,5.542,6.646,9.875,6.646h144.421c38.616,40.635,94.439,64,154.246,64h192  c4.333,0,8.25-2.625,9.875-6.646c1.646-4.021,0.667-8.635-2.438-11.667L462.813,406.271z"/>
<path style="fill:#E6E6E6;" d="M71.896,349.938c2.104-2.042,3.271-4.865,3.229-7.792c-0.042-2.927-1.271-5.708-3.438-7.698  C39.208,304.479,21.333,265.25,21.333,224c0-88.229,81.354-160,181.333-160S384,135.771,384,224s-81.354,160-181.333,160H36.917  L71.896,349.938z"/>
<path style="opacity:0.1;enable-background:new    ;" d="M321.635,103.543C340.785,128.901,352,159.307,352,192  c0,88.229-81.354,160-181.333,160H69.777l-32.861,32h165.75C302.646,384,384,312.229,384,224  C384,175.952,359.759,132.896,321.635,103.543z"/>
<path style="fill:#E6E6E6;" d="M309.333,448c-46.193,0-89.605-15.427-122.906-42.667h16.24c111.75,0,202.667-81.344,202.667-181.333  c0-29.611-8.134-57.504-22.26-82.216C447.647,167.076,490.667,223.941,490.667,288c0,41.25-17.875,80.479-50.354,110.458  c-2.167,1.979-3.396,4.76-3.438,7.688c-0.042,2.927,1.125,5.75,3.229,7.792L475.083,448H309.333z"/>
<linearGradient id="SVGID_1_" gradientUnits="userSpaceOnUse" x1="-34.0921" y1="634.4927" x2="-24.7587" y2="625.1593" gradientTransform="matrix(21.3333 0 0 -21.3333 996.3334 13791.667)">
	<stop offset="0" style="stop-color:#000000;stop-opacity:0.1"/>
	<stop offset="1" style="stop-color:#000000;stop-opacity:0"/>
</linearGradient>
<path style="fill:url(#SVGID_1_);" d="M440.104,413.938c-2.104-2.042-3.271-4.865-3.229-7.792c0.042-2.927,1.271-5.708,3.438-7.688  c32.479-29.979,50.354-69.208,50.354-110.458c0-18.707-4.049-36.647-10.853-53.52l-89.091-89.091  c-2.591-1.15-4.984-2.561-7.65-3.605c14.126,24.712,22.26,52.605,22.26,82.216c0,99.99-90.917,181.333-202.667,181.333h-16.24  C219.728,432.573,263.141,448,309.333,448h165.75L440.104,413.938z"/>
<linearGradient id="SVGID_2_" gradientUnits="userSpaceOnUse" x1="-46.2653" y1="638.6255" x2="-21.6442" y2="627.1449" gradientTransform="matrix(21.3333 0 0 -21.3333 996.3334 13791.667)">
	<stop offset="0" style="stop-color:#FFFFFF;stop-opacity:0.2"/>
	<stop offset="1" style="stop-color:#FFFFFF;stop-opacity:0"/>
</linearGradient>
<path style="fill:url(#SVGID_2_);" d="M462.813,406.271C494.625,373.323,512,331.729,512,288  c0-82.035-61.246-153.452-149.323-174.876c-37.107-42.772-94.949-70.457-160.01-70.457C90.917,42.667,0,124.01,0,224  c0,43.729,17.375,85.323,49.188,118.271l-45.958,44.75c-3.104,3.031-4.083,7.646-2.437,11.667c1.625,4.021,5.542,6.646,9.875,6.646  h144.421c38.616,40.635,94.439,64,154.246,64h192c4.333,0,8.25-2.625,9.875-6.646c1.646-4.021,0.667-8.635-2.438-11.667  L462.813,406.271z"/>
<g>
</g>
<g>
</g>
<g>
</g>
<g>
</g>
<g>
</g>
<g>
</g>
<g>
</g>
<g>
</g>
<g>
</g>
<g>
</g>
<g>
</g>
<g>
</g>
<g>
</g>
<g>
</g>
<g>
</g>
</svg>
