<?xml version="1.0" encoding="iso-8859-1"?>
<!-- Generator: Adobe Illustrator 19.0.0, SVG Export Plug-In . SVG Version: 6.00 Build 0)  -->
<svg xmlns="http://www.w3.org/2000/svg" xmlns:xlink="http://www.w3.org/1999/xlink" version="1.1" id="Capa_1" x="0px" y="0px" viewBox="0 0 512 512" style="enable-background:new 0 0 512 512;" xml:space="preserve">
<path style="fill:#303C42;" d="M512,288c0-74.143-61.81-138.697-147.766-155.595C332.94,79.354,267.602,42.667,192,42.667  c-105.875,0-192,71.771-192,160c0,46.823,24.042,90.406,66.313,120.854l-22.521,45.042c-2.104,4.208-1.208,9.292,2.208,12.521  C48.042,383,50.667,384,53.333,384c1.813,0,3.646-0.458,5.292-1.406l57.729-32.979c10.241,3.676,20.75,6.41,31.402,8.538  C179.816,412.794,246.589,448,320,448c26.083,0,51.5-4.385,75.646-13.052l57.729,32.979c1.646,0.948,3.479,1.406,5.292,1.406  c2.667,0,5.292-1,7.333-2.917c3.417-3.229,4.313-8.313,2.208-12.521l-22.521-45.042C487.958,378.406,512,334.823,512,288z"/>
<path style="fill:#1E88E5;" d="M110.104,328.615l-31.479,17.979l10.938-21.854c2.437-4.854,0.813-10.771-3.75-13.719  c-40.979-26.563-64.479-66.063-64.479-108.354C21.333,126.208,97.896,64,192,64s170.667,62.208,170.667,138.667  S286.104,341.333,192,341.333c-25.167,0-49.667-4.51-72.771-13.417C116.271,326.792,112.875,327.031,110.104,328.615z"/>
<path style="opacity:0.1;enable-background:new    ;" d="M313,104.999c17.863,21.914,28.333,48.139,28.333,76.335  c0,76.458-76.563,138.667-170.667,138.667c-25.167,0-49.667-4.51-72.771-13.417c-2.958-1.125-6.354-0.885-9.125,0.698l-4.539,2.592  c0.551,0.366,1.023,0.786,1.581,1.147c4.563,2.948,6.187,8.865,3.75,13.719l-10.938,21.854l31.479-17.979  c2.771-1.583,6.167-1.823,9.125-0.698c23.104,8.906,47.604,13.417,72.771,13.417c94.104,0,170.667-62.208,170.667-138.667  C362.667,164.602,343.671,130.082,313,104.999z"/>
<path style="fill:#1E88E5;" d="M426.188,396.354c-4.563,2.948-6.188,8.865-3.75,13.719l10.938,21.854l-31.479-17.979  c-2.75-1.583-6.125-1.823-9.125-0.698c-23.104,8.906-47.604,13.417-72.771,13.417c-59.078,0-113.307-24.84-144.296-64.688  c5.405,0.384,10.827,0.688,16.296,0.688c105.875,0,192-71.771,192-160c0-15.831-2.871-31.098-8.034-45.549  C443.53,176.242,490.667,228.643,490.667,288C490.667,330.292,467.167,369.792,426.188,396.354z"/>
<linearGradient id="SVGID_1_" gradientUnits="userSpaceOnUse" x1="-33.6596" y1="634.5385" x2="-25.8729" y2="626.7537" gradientTransform="matrix(21.3333 0 0 -21.3333 996.3334 13791.667)">
	<stop offset="0" style="stop-color:#000000;stop-opacity:0.1"/>
	<stop offset="1" style="stop-color:#000000;stop-opacity:0"/>
</linearGradient>
<path style="fill:url(#SVGID_1_);" d="M375.966,157.117c5.163,14.452,8.034,29.719,8.034,45.549c0,88.229-86.125,160-192,160  c-5.469,0-10.891-0.303-16.296-0.688c30.988,39.848,85.217,64.688,144.296,64.688c25.167,0,49.667-4.51,72.771-13.417  c3-1.125,6.375-0.885,9.125,0.698l31.479,17.979l-10.938-21.854c-2.438-4.854-0.813-10.771,3.75-13.719  c40.979-26.563,64.479-66.063,64.479-108.354c0-13.634-2.753-26.822-7.402-39.402l-82.616-82.616  C392.781,162.533,384.547,159.547,375.966,157.117z"/>
<linearGradient id="SVGID_2_" gradientUnits="userSpaceOnUse" x1="-46.2077" y1="639.4537" x2="-22.9594" y2="628.6121" gradientTransform="matrix(21.3333 0 0 -21.3333 996.3334 13791.667)">
	<stop offset="0" style="stop-color:#FFFFFF;stop-opacity:0.2"/>
	<stop offset="1" style="stop-color:#FFFFFF;stop-opacity:0"/>
</linearGradient>
<path style="fill:url(#SVGID_2_);" d="M512,288c0-74.143-61.81-138.697-147.766-155.595C332.94,79.354,267.602,42.667,192,42.667  c-105.875,0-192,71.771-192,160c0,46.823,24.042,90.406,66.313,120.854l-22.521,45.042c-2.104,4.208-1.208,9.292,2.208,12.521  C48.042,383,50.667,384,53.333,384c1.813,0,3.646-0.458,5.292-1.406l57.729-32.979c10.241,3.676,20.75,6.41,31.402,8.538  C179.816,412.794,246.589,448,320,448c26.083,0,51.5-4.385,75.646-13.052l57.729,32.979c1.646,0.948,3.479,1.406,5.292,1.406  c2.667,0,5.292-1,7.333-2.917c3.417-3.229,4.313-8.313,2.208-12.521l-22.521-45.042C487.958,378.406,512,334.823,512,288z"/>
<g>
</g>
<g>
</g>
<g>
</g>
<g>
</g>
<g>
</g>
<g>
</g>
<g>
</g>
<g>
</g>
<g>
</g>
<g>
</g>
<g>
</g>
<g>
</g>
<g>
</g>
<g>
</g>
<g>
</g>
</svg>
