<?xml version="1.0" encoding="iso-8859-1"?>
<!-- Generator: Adobe Illustrator 19.0.0, SVG Export Plug-In . SVG Version: 6.00 Build 0)  -->
<svg xmlns="http://www.w3.org/2000/svg" xmlns:xlink="http://www.w3.org/1999/xlink" version="1.1" id="Capa_1" x="0px" y="0px" viewBox="0 0 511.996 511.996" style="enable-background:new 0 0 511.996 511.996;" xml:space="preserve">
<path style="fill:#303C42;" d="M511.019,27.54c-1.74-3.781-5.521-6.208-9.688-6.208H170.665c-23.531,0-42.667,19.135-42.667,42.667  v106.667H10.665c-4.167,0-7.948,2.427-9.688,6.208s-1.125,8.24,1.594,11.396l61.427,71.677v188.052  c0,23.531,19.135,42.667,42.667,42.667h234.667c23.531,0,42.667-19.135,42.667-42.667V341.331h21.333  c23.531,0,42.667-19.135,42.667-42.667V110.612l61.427-71.677C512.144,35.779,512.758,31.321,511.019,27.54z"/>
<path style="fill:#F2F2F2;" d="M362.665,447.998c0,11.76-9.573,21.333-21.333,21.333H106.665c-11.76,0-21.333-9.573-21.333-21.333  v-192c0-2.542-0.906-5.01-2.573-6.938l-48.906-57.063h307.479c11.76,0,21.333,9.573,21.333,21.333V447.998z"/>
<path style="opacity:0.1;enable-background:new    ;" d="M341.331,191.998h-21.333v213.333c0,11.76-9.573,21.333-21.333,21.333  H85.331v21.333c0,11.76,9.573,21.333,21.333,21.333h234.667c11.76,0,21.333-9.573,21.333-21.333V213.331  C362.665,201.571,353.092,191.998,341.331,191.998z"/>
<path style="fill:#1E88E5;" d="M429.238,99.727c-1.667,1.927-2.573,4.396-2.573,6.938v192c0,11.76-9.573,21.333-21.333,21.333  h-21.333V213.331c0-23.531-19.135-42.667-42.667-42.667h-192V63.998c0-11.76,9.573-21.333,21.333-21.333h307.479L429.238,99.727z"/>
<g>
	<path style="fill:#303C42;" d="M309.331,255.998H138.665c-5.896,0-10.667,4.771-10.667,10.667c0,5.896,4.771,10.667,10.667,10.667   h170.667c5.896,0,10.667-4.771,10.667-10.667C319.998,260.769,315.227,255.998,309.331,255.998z"/>
	<path style="fill:#303C42;" d="M202.665,127.998h170.667c5.896,0,10.667-4.771,10.667-10.667c0-5.896-4.771-10.667-10.667-10.667   H202.665c-5.896,0-10.667,4.771-10.667,10.667C191.998,123.227,196.769,127.998,202.665,127.998z"/>
	<path style="fill:#303C42;" d="M309.331,319.998H138.665c-5.896,0-10.667,4.771-10.667,10.667c0,5.896,4.771,10.667,10.667,10.667   h170.667c5.896,0,10.667-4.771,10.667-10.667C319.998,324.769,315.227,319.998,309.331,319.998z"/>
	<path style="fill:#303C42;" d="M245.331,383.998H138.665c-5.896,0-10.667,4.771-10.667,10.667c0,5.896,4.771,10.667,10.667,10.667   h106.667c5.896,0,10.667-4.771,10.667-10.667C255.998,388.769,251.227,383.998,245.331,383.998z"/>
</g>
<linearGradient id="SVGID_1_" gradientUnits="userSpaceOnUse" x1="-30.6985" y1="636.3857" x2="-26.5443" y2="632.2295" gradientTransform="matrix(21.3333 0 0 -21.3333 996.3758 13791.6201)">
	<stop offset="0" style="stop-color:#000000;stop-opacity:0.1"/>
	<stop offset="1" style="stop-color:#000000;stop-opacity:0"/>
</linearGradient>
<path style="fill:url(#SVGID_1_);" d="M405.331,319.998c11.76,0,21.333-9.573,21.333-21.333v-60.103l-54.172-54.172  c7.079,7.62,11.505,17.742,11.505,28.941v106.667H405.331z"/>
<linearGradient id="SVGID_2_" gradientUnits="userSpaceOnUse" x1="-45.5727" y1="640.5216" x2="-25.7877" y2="631.2956" gradientTransform="matrix(21.3333 0 0 -21.3333 996.3758 13791.6201)">
	<stop offset="0" style="stop-color:#FFFFFF;stop-opacity:0.2"/>
	<stop offset="1" style="stop-color:#FFFFFF;stop-opacity:0"/>
</linearGradient>
<path style="fill:url(#SVGID_2_);" d="M511.019,27.54c-1.74-3.781-5.521-6.208-9.688-6.208H170.665  c-23.531,0-42.667,19.135-42.667,42.667v106.667H10.665c-4.167,0-7.948,2.427-9.688,6.208s-1.125,8.24,1.594,11.396l61.427,71.677  v188.052c0,23.531,19.135,42.667,42.667,42.667h234.667c23.531,0,42.667-19.135,42.667-42.667V341.331h21.333  c23.531,0,42.667-19.135,42.667-42.667V110.612l61.427-71.677C512.144,35.779,512.758,31.321,511.019,27.54z"/>
<g>
</g>
<g>
</g>
<g>
</g>
<g>
</g>
<g>
</g>
<g>
</g>
<g>
</g>
<g>
</g>
<g>
</g>
<g>
</g>
<g>
</g>
<g>
</g>
<g>
</g>
<g>
</g>
<g>
</g>
</svg>
