<?xml version="1.0" encoding="iso-8859-1"?>
<!-- Generator: Adobe Illustrator 19.0.0, SVG Export Plug-In . SVG Version: 6.00 Build 0)  -->
<svg xmlns="http://www.w3.org/2000/svg" xmlns:xlink="http://www.w3.org/1999/xlink" version="1.1" id="Capa_1" x="0px" y="0px" viewBox="0 0 469.333 469.333" style="enable-background:new 0 0 469.333 469.333;" xml:space="preserve">
<path style="fill:#303C42;" d="M426.667,85.333h-64V42.667C362.667,19.135,343.521,0,320,0H42.667C19.146,0,0,19.135,0,42.667  v330.667c0,4.313,2.604,8.208,6.583,9.854C7.896,383.74,9.292,384,10.667,384c2.771,0,5.5-1.083,7.542-3.125l82.208-82.208h6.25  v42.667c0,23.531,19.146,42.667,42.667,42.667h219.583l82.208,82.208c2.042,2.042,4.771,3.125,7.542,3.125  c1.375,0,2.771-0.26,4.083-0.813c3.979-1.646,6.583-5.542,6.583-9.854V128C469.333,104.469,450.188,85.333,426.667,85.333z"/>
<path style="fill:#4FC3F7;" d="M96,277.333c-2.833,0-5.542,1.125-7.542,3.125l-67.125,67.125V42.667  c0-11.76,9.563-21.333,21.333-21.333H320c11.771,0,21.333,9.573,21.333,21.333V256c0,11.76-9.563,21.333-21.333,21.333H96z"/>
<path style="opacity:0.1;enable-background:new    ;" d="M320,21.333v213.333c0,11.76-9.563,21.333-21.333,21.333h-224  c-2.833,0-5.542,1.125-7.542,3.125l-45.792,45.792v42.667l67.125-67.125c2-2,4.708-3.125,7.542-3.125h224  c11.771,0,21.333-9.573,21.333-21.333V42.667C341.333,30.906,331.771,21.333,320,21.333z"/>
<path style="fill:#4FC3F7;" d="M448,432.917l-67.125-67.125c-2-2-4.708-3.125-7.542-3.125h-224  c-11.771,0-21.333-9.573-21.333-21.333v-42.667h192c23.521,0,42.667-19.135,42.667-42.667V106.667h64  C438.438,106.667,448,116.24,448,128V432.917z"/>
<linearGradient id="SVGID_1_" gradientUnits="userSpaceOnUse" x1="-56.2865" y1="614.9011" x2="-45.64" y2="604.2546" gradientTransform="matrix(21.3333 0 0 -21.3333 1430.1112 13315.2227)">
	<stop offset="0" style="stop-color:#000000;stop-opacity:0.1"/>
	<stop offset="1" style="stop-color:#000000;stop-opacity:0"/>
</linearGradient>
<path style="fill:url(#SVGID_1_);" d="M320,298.667H128V320l42.667,42.667h202.667c2.833,0,5.542,1.125,7.542,3.125L448,432.917V192  l-85.333-85.333V256C362.667,279.531,343.521,298.667,320,298.667z"/>
<linearGradient id="SVGID_2_" gradientUnits="userSpaceOnUse" x1="-68.4735" y1="619.5123" x2="-42.7217" y2="607.5045" gradientTransform="matrix(21.3333 0 0 -21.3333 1430.1112 13315.2227)">
	<stop offset="0" style="stop-color:#FFFFFF;stop-opacity:0.2"/>
	<stop offset="1" style="stop-color:#FFFFFF;stop-opacity:0"/>
</linearGradient>
<path style="fill:url(#SVGID_2_);" d="M426.667,85.333h-64V42.667C362.667,19.135,343.521,0,320,0H42.667  C19.146,0,0,19.135,0,42.667v330.667c0,4.313,2.604,8.208,6.583,9.854C7.896,383.74,9.292,384,10.667,384  c2.771,0,5.5-1.083,7.542-3.125l82.208-82.208h6.25v42.667c0,23.531,19.146,42.667,42.667,42.667h219.583l82.208,82.208  c2.042,2.042,4.771,3.125,7.542,3.125c1.375,0,2.771-0.26,4.083-0.813c3.979-1.646,6.583-5.542,6.583-9.854V128  C469.333,104.469,450.188,85.333,426.667,85.333z"/>
<g>
</g>
<g>
</g>
<g>
</g>
<g>
</g>
<g>
</g>
<g>
</g>
<g>
</g>
<g>
</g>
<g>
</g>
<g>
</g>
<g>
</g>
<g>
</g>
<g>
</g>
<g>
</g>
<g>
</g>
</svg>
