<?xml version="1.0" encoding="iso-8859-1"?>
<!-- Generator: Adobe Illustrator 19.0.0, SVG Export Plug-In . SVG Version: 6.00 Build 0)  -->
<svg xmlns="http://www.w3.org/2000/svg" xmlns:xlink="http://www.w3.org/1999/xlink" version="1.1" id="Capa_1" x="0px" y="0px" viewBox="0 0 512.001 512.001" style="enable-background:new 0 0 512.001 512.001;" xml:space="preserve">
<path style="fill:#303C42;" d="M394.667,21.334c-64.698,0-117.333,43.063-117.333,96c0,22.49,9.49,43.875,26.906,61.063  l-25.25,39.896c-2.583,4.083-2.104,9.375,1.156,12.927c2.073,2.26,4.948,3.448,7.854,3.448c1.677,0,3.375-0.396,4.927-1.208  l54.677-28.51c15.302,5.563,31.104,8.385,47.063,8.385c64.698,0,117.333-43.063,117.333-96S459.365,21.334,394.667,21.334z"/>
<path style="fill:#29B6F6;" d="M394.667,192c-14.833,0-29.552-2.896-43.74-8.625c-2.896-1.146-6.156-1.021-8.917,0.438  l-23.802,12.406l8.854-13.99c2.875-4.542,1.927-10.5-2.208-13.927c-16.885-13.99-26.188-32.094-26.188-50.969  c0-41.167,43.063-74.667,96-74.667s96,33.5,96,74.667S447.605,192,394.667,192z"/>
<path style="opacity:0.1;enable-background:new    ;" d="M478.061,81.071c1.264,4.827,1.94,9.818,1.94,14.93  c0,41.167-43.063,74.667-96,74.667c-14.833,0-29.552-2.896-43.74-8.625c-2.896-1.146-6.156-1.021-8.917,0.438l-8.094,4.219  c0.585,0.51,1,1.104,1.604,1.604c4.135,3.427,5.083,9.385,2.208,13.927l-8.854,13.99l23.802-12.406  c2.76-1.458,6.021-1.583,8.917-0.438c14.188,5.729,28.906,8.625,43.74,8.625c52.938,0,96-33.5,96-74.667  C490.667,104.108,485.85,91.857,478.061,81.071z"/>
<path style="fill:#303C42;" d="M339.542,474.063c-10.198-15.313-26.021-36.417-45.531-42.938l-23.927-7.958  c-10.552-3.531-19.771-10.563-25.937-19.823l-3.635-5.458c-1.979-2.969-5.302-4.75-8.875-4.75h-6.917l-4.208-16.813  c11.438-13.396,18.677-30.458,20.99-41.844c14.677-12.573,16.042-52.104,16.042-52.573c0-8.281-2.406-16.625-7.083-22.344  c3.552-7.083,6.302-16.208,6.937-26.427l4.646-4.646c1.99-2,3.115-4.719,3.115-7.542c0-34.438-33.208-71.615-86.865-71.615  c-29.333,0-44.583,10.167-50.854,15.885c-15.865,3.813-36,23.906-36,48.115l-0.042,7.385c-0.125,16.656,0.021,28.458,1.458,36.729  c-5.969,5.646-9.042,15.083-9.042,24.458c0,0.469,1.365,40,16.042,52.573c2.313,11.385,9.552,28.448,20.99,41.844l-4.208,16.813  h-6.917c-3.573,0-6.896,1.781-8.875,4.75l-3.635,5.458c-6.167,9.26-15.385,16.292-25.948,19.813l-23.927,7.979  c-14.854,4.948-29.323,18.604-45.542,42.948c-3.271,4.906-1.937,11.531,2.958,14.792c1.823,1.208,3.875,1.792,5.906,1.792  l0.01-0.003v0.003h320v-0.23c2.033-0.001,4.083-0.382,5.917-1.582C341.48,485.594,342.813,478.969,339.542,474.063z"/>
<path style="fill:#E6E6E6;" d="M54.092,451.375l23.927-7.979c15.042-5.01,28.156-15.031,36.948-28.219l10-0.708  c4.896,0,9.156-3.333,10.344-8.073l7.625-30.469c0.917-3.635-0.156-7.49-2.802-10.135c-13.531-13.531-19.719-33.865-19.74-38.177  c0-4.75-3.104-8.771-7.396-10.156c-3.875-6.156-7.844-29.104-7.844-35.552c0-3.469,1.333-7.865,0.813-8.344  c4.313,0,8.729-1.906,10.385-5.885c1.646-3.99,1.26-7.885-1.802-10.927c-2.052-4.677-1.885-25.74-1.813-35.865l0.042-7.552  c0-15.917,15.802-27.031,19.813-27.427c3.156,0,6.333-1.635,8.365-4.042c0.385-0.458,9.719-11.198,37.344-11.198  c41.75,0,62.667,26.167,65.26,46.146l-4.229,4.219c-1.99,2-3.115,4.719-3.115,7.542c0,13.917-5.625,24.052-8.354,26.781  c-3.052,3.052-4.75,7.365-3.094,11.344c1.646,3.99,4.75,6.313,9.073,6.313c1.042,1.031,2.375,5.427,2.375,8.896  c0,6.448-3.969,29.406-7.854,35.563c-4.271,1.385-7.365,5.417-7.385,10.146c-0.021,4.313-6.208,24.646-19.74,38.177  c-2.646,2.646-3.719,6.5-2.802,10.135l7.625,30.469c1.188,4.74,5.448,8.073,10.344,8.073h9.531l0.469,0.708  c8.792,13.177,21.906,23.208,36.948,28.229l23.927,7.958c6.568,2.191,13.995,8.436,22.055,17.969H32.039  C40.1,459.806,47.528,453.566,54.092,451.375z"/>
<path style="opacity:0.1;enable-background:new    ;" d="M287.279,451.365l-23.927-7.958c-15.042-5.021-28.156-15.052-36.948-28.229  l-0.469-0.708h-9.531c-4.896,0-9.156-3.333-10.344-8.073l-7.625-30.469c-0.917-3.635,0.156-7.49,2.802-10.135  c13.531-13.531,19.719-33.865,19.74-38.177c0.021-4.729,3.115-8.76,7.385-10.146c3.885-6.156,7.854-29.115,7.854-35.563  c0-3.469-1.333-7.865-2.375-8.896c-4.323,0-7.427-2.323-9.073-6.313c-1.656-3.979,0.042-8.292,3.094-11.344  c2.729-2.729,8.354-12.865,8.354-26.781c0-2.823,1.125-5.542,3.115-7.542l4.229-4.219c-2.594-19.979-23.51-46.146-65.26-46.146  c-3.51,0-6.714,0.18-9.652,0.483c33.661,2.491,50.848,26.72,53.052,45.663l-3.793,4.219c-1.784,2-2.792,4.719-2.792,7.542  c0,13.917-5.044,24.052-7.491,26.781c-2.737,3.052-4.259,7.365-2.775,11.344c1.477,3.99,4.259,6.313,8.135,6.313  c0.934,1.031,2.13,5.427,2.13,8.896c0,6.448-3.559,29.406-7.043,35.563c-3.829,1.385-6.603,5.417-6.622,10.146  c-0.018,4.313-5.566,24.646-17.699,38.177c-2.372,2.646-3.335,6.5-2.513,10.135l6.837,30.469c1.065,4.74,4.885,8.073,9.275,8.073  h8.547l0.419,0.708c7.884,13.177,19.643,23.208,33.13,28.229l21.454,7.958c5.888,2.191,12.548,8.436,19.775,17.969h28.659  C301.274,459.801,293.847,453.556,287.279,451.365z"/>
<linearGradient id="SVGID_1_" gradientUnits="userSpaceOnUse" x1="-42.3128" y1="637.1811" x2="-27.3441" y2="630.2012" gradientTransform="matrix(21.3333 0 0 -21.3333 996.3252 13791.6758)">
	<stop offset="0" style="stop-color:#FFFFFF;stop-opacity:0.2"/>
	<stop offset="1" style="stop-color:#FFFFFF;stop-opacity:0"/>
</linearGradient>
<path style="fill:url(#SVGID_1_);" d="M394.667,21.334c-64.698,0-117.333,43.063-117.333,96c0,22.49,9.49,43.875,26.906,61.063  l-25.25,39.896c-2.583,4.083-2.104,9.375,1.156,12.927c2.073,2.26,4.948,3.448,7.854,3.448c1.677,0,3.375-0.396,4.927-1.208  l54.677-28.51c15.302,5.563,31.104,8.385,47.063,8.385c64.698,0,117.333-43.063,117.333-96S459.365,21.334,394.667,21.334z   M294.011,431.125l-23.927-7.958c-10.552-3.531-19.771-10.563-25.937-19.823l-3.635-5.458c-1.979-2.969-5.302-4.75-8.875-4.75  h-6.917l-4.208-16.813c11.438-13.396,18.677-30.458,20.99-41.844c14.677-12.573,16.042-52.104,16.042-52.573  c0-8.281-2.406-16.625-7.083-22.344c3.552-7.083,6.302-16.208,6.937-26.427l4.646-4.646c1.99-2,3.115-4.719,3.115-7.542  c0-34.438-33.208-71.615-86.865-71.615c-29.333,0-44.583,10.167-50.854,15.885c-15.865,3.813-36,23.906-36,48.115l-0.042,7.385  c-0.125,16.656,0.021,28.458,1.458,36.729c-5.969,5.646-9.042,15.083-9.042,24.458c0,0.469,1.365,40,16.042,52.573  c2.313,11.385,9.552,28.448,20.99,41.844l-4.208,16.813h-6.917c-3.573,0-6.896,1.781-8.875,4.75l-3.635,5.458  c-6.167,9.26-15.385,16.292-25.948,19.813l-23.927,7.979c-14.854,4.948-29.323,18.604-45.542,42.948  c-3.271,4.906-1.937,11.531,2.958,14.792c1.823,1.208,3.875,1.792,5.906,1.792l0.01-0.003v0.003h320v-0.23  c2.033-0.001,4.083-0.382,5.917-1.582c4.896-3.26,6.229-9.885,2.958-14.792C329.345,458.75,313.522,437.646,294.011,431.125z"/>
<g>
</g>
<g>
</g>
<g>
</g>
<g>
</g>
<g>
</g>
<g>
</g>
<g>
</g>
<g>
</g>
<g>
</g>
<g>
</g>
<g>
</g>
<g>
</g>
<g>
</g>
<g>
</g>
<g>
</g>
</svg>
