<?xml version="1.0" encoding="iso-8859-1"?>
<!-- Generator: Adobe Illustrator 19.0.0, SVG Export Plug-In . SVG Version: 6.00 Build 0)  -->
<svg xmlns="http://www.w3.org/2000/svg" xmlns:xlink="http://www.w3.org/1999/xlink" version="1.1" id="Capa_1" x="0px" y="0px" viewBox="0 0 469.333 469.333" style="enable-background:new 0 0 469.333 469.333;" xml:space="preserve">
<path style="fill:#303C42;" d="M10.667,469.333c-1.375,0-2.76-0.26-4.083-0.813C2.594,466.875,0,462.979,0,458.667v-416  C0,19.135,19.135,0,42.667,0h384c23.531,0,42.667,19.135,42.667,42.667V320c0,23.531-19.135,42.667-42.667,42.667H121.75  L18.208,466.208C16.167,468.25,13.438,469.333,10.667,469.333z"/>
<path style="fill:#1E88E5;" d="M42.667,21.333c-11.76,0-21.333,9.573-21.333,21.333v390.25l88.458-88.458  c2-2,4.708-3.125,7.542-3.125h309.333c11.76,0,21.333-9.573,21.333-21.333V42.667c0-11.76-9.573-21.333-21.333-21.333H42.667z"/>
<path style="fill:#303C42;" d="M309.333,149.333v-10.667c0-41.167-33.5-74.667-74.667-74.667S160,97.5,160,138.667v10.667  c-11.76,0-21.333,9.573-21.333,21.333v106.667c0,11.76,9.573,21.333,21.333,21.333h149.333c11.76,0,21.333-9.573,21.333-21.333  V170.667C330.667,158.906,321.094,149.333,309.333,149.333z M288,149.333H181.333v-10.667c0-29.406,23.927-53.333,53.333-53.333  S288,109.26,288,138.667V149.333z"/>
<polygon style="fill:#E6E6E6;" points="309.333,277.333 160,277.333 160,170.667 159.979,170.667 160,170.667 309.333,170.667 "/>
<path style="fill:#303C42;" d="M234.667,192c-11.76,0-21.333,9.573-21.333,21.333c0,7.792,4.409,14.329,10.667,18.053v13.947  c0,5.896,4.771,10.667,10.667,10.667s10.667-4.771,10.667-10.667v-13.947c6.258-3.724,10.667-10.262,10.667-18.053  C256,201.573,246.427,192,234.667,192z"/>
<linearGradient id="SVGID_1_" gradientUnits="userSpaceOnUse" x1="-59.4049" y1="617.8164" x2="-48.1813" y2="606.5928" gradientTransform="matrix(21.3333 0 0 -21.3333 1430.1112 13315.2227)">
	<stop offset="0" style="stop-color:#000000;stop-opacity:0.1"/>
	<stop offset="1" style="stop-color:#000000;stop-opacity:0"/>
</linearGradient>
<path style="fill:url(#SVGID_1_);" d="M143.333,290.667l1.271,1.271c-0.48-0.507-0.74-1.181-1.169-1.732L143.333,290.667z   M288,138.667c0-29.406-23.927-53.333-53.333-53.333s-53.333,23.927-53.333,53.333v10.667H288V138.667z M285.333,82.667  l-2.327-0.428c15.975,13.706,26.327,33.783,26.327,56.428v10.667c11.76,0,21.333,9.573,21.333,21.333v106.667  c0,11.76-9.573,21.333-21.333,21.333H160c-5.676,0-10.777-2.309-14.604-5.938L194,341.333h232.667  c11.76,0,21.333-9.573,21.333-21.333v-74.667L285.333,82.667z"/>
<linearGradient id="SVGID_2_" gradientUnits="userSpaceOnUse" x1="-68.7931" y1="618.8268" x2="-45.4033" y2="607.921" gradientTransform="matrix(21.3333 0 0 -21.3333 1430.1112 13315.2227)">
	<stop offset="0" style="stop-color:#FFFFFF;stop-opacity:0.2"/>
	<stop offset="1" style="stop-color:#FFFFFF;stop-opacity:0"/>
</linearGradient>
<path style="fill:url(#SVGID_2_);" d="M10.667,469.333c-1.375,0-2.76-0.26-4.083-0.813C2.594,466.875,0,462.979,0,458.667v-416  C0,19.135,19.135,0,42.667,0h384c23.531,0,42.667,19.135,42.667,42.667V320c0,23.531-19.135,42.667-42.667,42.667H121.75  L18.208,466.208C16.167,468.25,13.438,469.333,10.667,469.333z"/>
<g>
</g>
<g>
</g>
<g>
</g>
<g>
</g>
<g>
</g>
<g>
</g>
<g>
</g>
<g>
</g>
<g>
</g>
<g>
</g>
<g>
</g>
<g>
</g>
<g>
</g>
<g>
</g>
<g>
</g>
</svg>
