<?xml version="1.0" encoding="iso-8859-1"?>
<!-- Generator: Adobe Illustrator 19.0.0, SVG Export Plug-In . SVG Version: 6.00 Build 0)  -->
<svg xmlns="http://www.w3.org/2000/svg" xmlns:xlink="http://www.w3.org/1999/xlink" version="1.1" id="Capa_1" x="0px" y="0px" viewBox="0 0 512 512" style="enable-background:new 0 0 512 512;" xml:space="preserve">
<path style="fill:#303C42;" d="M480,21.333H309.333c-17.646,0-32,14.354-32,32v192c0,4.313,2.594,8.208,6.583,9.854  C285.24,255.74,286.625,256,288,256c2.771,0,5.5-1.083,7.542-3.125l39.542-39.542H480c17.646,0,32-14.354,32-32v-128  C512,35.688,497.646,21.333,480,21.333z"/>
<path style="fill:#29B6F6;" d="M490.667,181.333c0,5.885-4.781,10.667-10.667,10.667H330.667c-2.833,0-5.542,1.125-7.542,3.125  l-24.458,24.458V53.333c0-5.885,4.781-10.667,10.667-10.667H480c5.885,0,10.667,4.781,10.667,10.667V181.333z"/>
<path style="opacity:0.1;enable-background:new    ;" d="M480,42.667h-10.667v121.75c0,5.885-4.781,10.667-10.667,10.667H309.333  c-2.833,0-5.542,1.125-7.542,3.125l-3.125,3.125v38.25l24.458-24.458c2-2,4.708-3.125,7.542-3.125H480  c5.885,0,10.667-4.781,10.667-10.667v-128C490.667,47.448,485.885,42.667,480,42.667z"/>
<path style="fill:#303C42;" d="M338.208,472.458c-16.167-16.167-35.052-28.813-56.135-37.583l-32.583-13.573  c-11.417-4.76-20.698-13.479-26.25-24.302c4.375-0.552,7.781-0.823,8.458-0.875c3.688,3.677,9.49,4.156,13.729,1.146  c3.344-2.385,4.948-6.385,4.365-10.271c6.594,0.594,14.177-0.438,19.844-6.115c4.167-4.167,4.167-10.917,0-15.083  c-4.656-4.656-4.573-13.875-4.5-20.594l0.01-2.344c0-7.396,1.344-9.406,4.031-13.417c6.135-9.156,11.208-19.052,11.208-47.531  c0-45-36.042-132.583-102.104-132.583c-12.635,0-21.646,4.5-26.375,7.615h-4.094c-49.563,0-86.865,75.813-86.865,124.969  c0,28.479,5.073,38.375,11.208,47.531c2.688,4.01,4.031,6.021,4.031,13.417l0.01,2.344c0.073,6.719,0.156,15.938-4.5,20.594  c-4.167,4.167-4.167,10.917,0,15.083c5.688,5.688,13.219,6.75,19.76,6.167c-0.792,4.031,0.333,8.375,3.677,10.76  c4.25,3.01,9.271,3.073,12.969-0.604c1.5-0.552,5.323-0.542,9.927-0.094c-5.563,10.771-14.813,19.448-26.188,24.188l-32.573,13.573  c-21.094,8.771-39.979,21.417-56.146,37.583c-4.167,4.167-4.167,10.917,0,15.083c2.083,2.083,4.813,3.125,7.542,3.125h320  c2.729,0,5.458-1.042,7.542-3.125C342.375,483.375,342.375,476.625,338.208,472.458z"/>
<path style="fill:#E6E6E6;" d="M67.469,454.563l32.583-13.573c21.26-8.854,37.292-27.479,42.865-49.823  c0.708-2.792,0.24-5.75-1.281-8.208c-1.521-2.448-3.958-4.177-6.781-4.792c-6.896-1.51-13.01-2.406-18.323-2.667  c-0.198-2.938-1.146-5.729-3.188-8.177c-4.073-4.896-10.167-5.375-15.667-3.688c-0.573,0.26-1.188,0.5-1.833,0.729  c1.813-7.146,1.74-14.219,1.688-19.365l-0.01-2.135c0-12.854-3.313-18.823-7.635-25.281c-3.563-5.323-7.604-11.354-7.604-35.667  c0-39.042,30.625-103.635,65.531-103.635h7.698c2.948,0,5.615-1.198,7.542-3.125c1.458-1.052,6.875-4.49,15.229-4.49  c49.313,0,80.771,73.052,80.771,111.25c0,24.313-4.042,30.344-7.604,35.667c-4.323,6.458-7.635,12.427-7.635,25.281l-0.01,2.135  c-0.052,5.135-0.125,12.188,1.677,19.333c-1.115-0.365-2.25-0.792-3.396-1.271c-3.917-1.052-10.021-0.635-14.094,4.26  c-2.042,2.448-2.99,5.24-3.188,8.177c-5.313,0.26-11.427,1.156-18.323,2.667c-2.823,0.615-5.26,2.344-6.781,4.792  c-1.521,2.458-1.99,5.417-1.281,8.208c5.573,22.344,21.604,40.969,42.865,49.823l32.594,13.573  c9.618,4.008,18.686,8.975,27.198,14.771H40.262C48.773,463.538,57.845,458.57,67.469,454.563z"/>
<path style="opacity:0.1;enable-background:new    ;" d="M273.875,454.563l-32.594-13.573c-21.26-8.854-37.292-27.479-42.865-49.823  c-0.708-2.792-0.24-5.75,1.281-8.208c1.521-2.448,3.958-4.177,6.781-4.792c6.896-1.51,13.01-2.406,18.323-2.667  c0.198-2.938,1.146-5.729,3.188-8.177c4.073-4.896,10.177-5.313,14.094-4.26c1.146,0.479,2.281,0.906,3.396,1.271  c-1.802-7.146-1.729-14.198-1.677-19.333l0.01-2.135c0-12.854,3.313-18.823,7.635-25.281c3.563-5.323,7.604-11.354,7.604-35.667  c0-38.198-31.458-111.25-80.771-111.25c-3.438,0-6.234,0.633-8.607,1.391c37.227,9.818,60.514,74.611,60.514,109.859  c0,24.313-3.508,30.344-6.6,35.667c-3.753,6.458-6.629,12.427-6.629,25.281L216.951,345c-0.044,5.135-0.108,12.188,1.456,19.333  c-0.967-0.365-1.953-0.792-2.947-1.271c-3.401-1.052-8.699-0.635-12.236,4.26c-1.772,2.448-2.595,5.24-2.767,8.177  c-4.611,0.26-9.919,1.156-15.905,2.667c-2.451,0.615-4.566,2.344-5.887,4.792c-1.32,2.458-1.728,5.417-1.112,8.208  c4.837,22.344,18.754,40.969,37.21,49.823l28.294,13.573c8.349,4.008,16.22,8.975,23.609,14.771h34.406  C292.561,463.538,283.493,458.57,273.875,454.563z"/>
<path style="opacity:0.2;fill:#FFFFFF;enable-background:new    ;" d="M245.436,364.046c-0.117,0.055-0.237,0.079-0.353,0.139  c0.13,0.044,0.266,0.105,0.396,0.148C245.454,364.234,245.461,364.145,245.436,364.046z"/>
<linearGradient id="SVGID_1_" gradientUnits="userSpaceOnUse" x1="-42.3611" y1="637.8738" x2="-26.1291" y2="630.3047" gradientTransform="matrix(21.3333 0 0 -21.3333 996.3334 13791.667)">
	<stop offset="0" style="stop-color:#FFFFFF;stop-opacity:0.2"/>
	<stop offset="1" style="stop-color:#FFFFFF;stop-opacity:0"/>
</linearGradient>
<path style="fill:url(#SVGID_1_);" d="M480,21.333H309.333c-17.646,0-32,14.354-32,32v192c0,4.313,2.594,8.208,6.583,9.854  C285.24,255.74,286.625,256,288,256c2.771,0,5.5-1.083,7.542-3.125l39.542-39.542H480c17.646,0,32-14.354,32-32v-128  C512,35.688,497.646,21.333,480,21.333z M282.073,434.875l-32.583-13.573c-11.417-4.76-20.698-13.479-26.25-24.302  c4.375-0.552,7.781-0.823,8.458-0.875c3.688,3.677,9.49,4.156,13.729,1.146c3.344-2.385,4.948-6.385,4.365-10.271  c6.594,0.594,14.177-0.438,19.844-6.115c4.167-4.167,4.167-10.917,0-15.083c-4.656-4.656-4.573-13.875-4.5-20.594l0.01-2.344  c0-7.396,1.344-9.406,4.031-13.417c6.135-9.156,11.208-19.052,11.208-47.531c0-45-36.042-132.583-102.104-132.583  c-12.635,0-21.646,4.5-26.375,7.615h-4.094c-49.563,0-86.865,75.813-86.865,124.969c0,28.479,5.073,38.375,11.208,47.531  c2.688,4.01,4.031,6.021,4.031,13.417l0.01,2.344c0.073,6.719,0.156,15.938-4.5,20.594c-4.167,4.167-4.167,10.917,0,15.083  c5.688,5.688,13.219,6.75,19.76,6.167c-0.792,4.031,0.333,8.375,3.677,10.76c4.25,3.01,9.271,3.073,12.969-0.604  c1.5-0.552,5.323-0.542,9.927-0.094c-5.563,10.771-14.813,19.448-26.188,24.188l-32.573,13.573  c-21.094,8.771-39.979,21.417-56.146,37.583c-4.167,4.167-4.167,10.917,0,15.083c2.083,2.083,4.813,3.125,7.542,3.125h320  c2.729,0,5.458-1.042,7.542-3.125c4.167-4.167,4.167-10.917,0-15.083C322.042,456.292,303.156,443.646,282.073,434.875z"/>
<g>
</g>
<g>
</g>
<g>
</g>
<g>
</g>
<g>
</g>
<g>
</g>
<g>
</g>
<g>
</g>
<g>
</g>
<g>
</g>
<g>
</g>
<g>
</g>
<g>
</g>
<g>
</g>
<g>
</g>
</svg>
