<?xml version="1.0" encoding="iso-8859-1"?>
<!-- Generator: Adobe Illustrator 19.0.0, SVG Export Plug-In . SVG Version: 6.00 Build 0)  -->
<svg xmlns="http://www.w3.org/2000/svg" xmlns:xlink="http://www.w3.org/1999/xlink" version="1.1" id="Capa_1" x="0px" y="0px" viewBox="0 0 469.333 469.333" style="enable-background:new 0 0 469.333 469.333;" xml:space="preserve">
<path style="fill:#303C42;" d="M10.667,469.333c-1.375,0-2.76-0.26-4.083-0.813C2.594,466.875,0,462.979,0,458.667v-416  C0,19.135,19.135,0,42.667,0h384c23.531,0,42.667,19.135,42.667,42.667V320c0,23.531-19.135,42.667-42.667,42.667H121.75  L18.208,466.208C16.167,468.25,13.438,469.333,10.667,469.333z"/>
<path style="fill:#1E88E5;" d="M42.667,21.333c-11.76,0-21.333,9.573-21.333,21.333v390.25l88.458-88.458  c2-2,4.708-3.125,7.542-3.125h309.333c11.76,0,21.333-9.573,21.333-21.333V42.667c0-11.76-9.573-21.333-21.333-21.333H42.667z"/>
<path style="fill:#303C42;" d="M138.665,298.667c0.698,0,1.396-0.063,2.094-0.208l53.313-10.667  c2.063-0.417,3.958-1.417,5.448-2.917l129.854-129.833h0.01c7.708-7.729,11.948-17.979,11.948-28.875  c0-22.521-18.313-40.833-40.833-40.833c-10.927,0-21.177,4.25-28.875,11.958L141.79,227.104c-1.49,1.479-2.5,3.375-2.917,5.458  l-10.667,53.354c-0.698,3.479,0.396,7.104,2.917,9.625C133.144,297.563,135.863,298.667,138.665,298.667z"/>
<path style="fill:#D32F2F;" d="M286.717,112.375c3.667-3.688,8.563-5.708,13.781-5.708c10.75,0,19.5,8.75,19.5,19.5  c0,5.208-2.031,10.104-5.719,13.792l-15.621,15.618l-27.574-27.574L286.717,112.375z"/>
<polygon style="fill:#FFCA28;" points="159.155,239.896 255.998,143.083 283.574,170.659 186.717,267.5 152.259,274.396 "/>
<path style="opacity:0.1;enable-background:new    ;" d="M284.875,141.792l13.784,13.785l15.621-15.618  c3.688-3.688,5.719-8.583,5.719-13.792c0-5.375-2.188-10.249-5.719-13.78L284.875,141.792z"/>
<polygon style="opacity:0.1;enable-background:new    ;" points="186.717,267.5 283.574,170.659 269.792,156.875 152.273,274.393   "/>
<linearGradient id="SVGID_1_" gradientUnits="userSpaceOnUse" x1="-56.2495" y1="614.9375" x2="-48.0436" y2="606.7307" gradientTransform="matrix(21.3333 0 0 -21.3333 1430.1112 13315.2227)">
	<stop offset="0" style="stop-color:#000000;stop-opacity:0.1"/>
	<stop offset="1" style="stop-color:#000000;stop-opacity:0"/>
</linearGradient>
<path style="fill:url(#SVGID_1_);" d="M332.473,100.938l-0.063,0.06c5.501,6.958,8.923,15.629,8.923,25.169  c0,10.896-4.24,21.146-11.948,28.875h-0.01L199.521,284.875c-1.49,1.5-3.385,2.5-5.448,2.917l-53.313,10.667  c-0.698,0.146-1.396,0.208-2.094,0.208c-2.802,0-5.521-1.104-7.542-3.125l45.792,45.792h249.75c11.76,0,21.333-9.573,21.333-21.333  V216.465L332.473,100.938z"/>
<linearGradient id="SVGID_2_" gradientUnits="userSpaceOnUse" x1="-68.7931" y1="618.8268" x2="-45.4033" y2="607.921" gradientTransform="matrix(21.3333 0 0 -21.3333 1430.1112 13315.2227)">
	<stop offset="0" style="stop-color:#FFFFFF;stop-opacity:0.2"/>
	<stop offset="1" style="stop-color:#FFFFFF;stop-opacity:0"/>
</linearGradient>
<path style="fill:url(#SVGID_2_);" d="M10.667,469.333c-1.375,0-2.76-0.26-4.083-0.813C2.594,466.875,0,462.979,0,458.667v-416  C0,19.135,19.135,0,42.667,0h384c23.531,0,42.667,19.135,42.667,42.667V320c0,23.531-19.135,42.667-42.667,42.667H121.75  L18.208,466.208C16.167,468.25,13.438,469.333,10.667,469.333z"/>
<g>
</g>
<g>
</g>
<g>
</g>
<g>
</g>
<g>
</g>
<g>
</g>
<g>
</g>
<g>
</g>
<g>
</g>
<g>
</g>
<g>
</g>
<g>
</g>
<g>
</g>
<g>
</g>
<g>
</g>
</svg>
