<?xml version="1.0" encoding="iso-8859-1"?>
<!-- Generator: Adobe Illustrator 19.0.0, SVG Export Plug-In . SVG Version: 6.00 Build 0)  -->
<svg xmlns="http://www.w3.org/2000/svg" xmlns:xlink="http://www.w3.org/1999/xlink" version="1.1" id="Capa_1" x="0px" y="0px" viewBox="0 0 512 512" style="enable-background:new 0 0 512 512;" xml:space="preserve">
<path style="fill:#303C42;" d="M10.667,469.333c-1.375,0-2.76-0.26-4.083-0.813C2.594,466.875,0,462.979,0,458.667v-416  C0,19.135,19.135,0,42.667,0h384c23.531,0,42.667,19.135,42.667,42.667V320c0,23.531-19.135,42.667-42.667,42.667H121.75  L18.208,466.208C16.167,468.25,13.438,469.333,10.667,469.333z"/>
<path style="fill:#1E88E5;" d="M42.667,21.333c-11.76,0-21.333,9.573-21.333,21.333v390.25l88.458-88.458  c2-2,4.708-3.125,7.542-3.125h309.333c11.76,0,21.333-9.573,21.333-21.333V42.667c0-11.76-9.573-21.333-21.333-21.333H42.667z"/>
<circle style="fill:#303C42;" cx="394.667" cy="394.667" r="117.333"/>
<g>
	<path style="fill:#FFFFFF;" d="M490.667,394.667c0,22.624-8.193,43.167-21.332,59.594l-134.251-134.27   c16.424-13.135,36.964-21.324,59.583-21.324C447.604,298.667,490.667,341.729,490.667,394.667z"/>
	<path style="fill:#FFFFFF;" d="M298.667,394.667c0-22.624,8.193-43.167,21.332-59.594l134.251,134.27   c-16.424,13.135-36.964,21.324-59.583,21.324C341.729,490.667,298.667,447.604,298.667,394.667z"/>
</g>
<linearGradient id="SVGID_1_" gradientUnits="userSpaceOnUse" x1="-48.4597" y1="641.1605" x2="-21.7899" y2="628.7245" gradientTransform="matrix(21.3333 0 0 -21.3333 996.3334 13791.667)">
	<stop offset="0" style="stop-color:#FFFFFF;stop-opacity:0.2"/>
	<stop offset="1" style="stop-color:#FFFFFF;stop-opacity:0"/>
</linearGradient>
<path style="fill:url(#SVGID_1_);" d="M469.333,304.232V42.667C469.333,19.135,450.198,0,426.667,0h-384C19.135,0,0,19.135,0,42.667  v416c0,4.313,2.594,8.208,6.583,9.854c1.323,0.552,2.708,0.813,4.083,0.813c2.771,0,5.5-1.083,7.542-3.125L121.75,362.667h160.133  c-2.896,10.189-4.549,20.896-4.549,32c0,64.698,52.646,117.333,117.333,117.333S512,459.365,512,394.667  C512,358.313,495.374,325.77,469.333,304.232z"/>
<g>
</g>
<g>
</g>
<g>
</g>
<g>
</g>
<g>
</g>
<g>
</g>
<g>
</g>
<g>
</g>
<g>
</g>
<g>
</g>
<g>
</g>
<g>
</g>
<g>
</g>
<g>
</g>
<g>
</g>
</svg>
