<?xml version="1.0" encoding="iso-8859-1"?>
<!-- Generator: Adobe Illustrator 19.0.0, SVG Export Plug-In . SVG Version: 6.00 Build 0)  -->
<svg xmlns="http://www.w3.org/2000/svg" xmlns:xlink="http://www.w3.org/1999/xlink" version="1.1" id="Capa_1" x="0px" y="0px" viewBox="0 0 512.002 512.002" style="enable-background:new 0 0 512.002 512.002;" xml:space="preserve">
<path style="fill:#303C42;" d="M256.002,490.668H10.669c-4.312,0-8.208-2.594-9.854-6.583c-1.656-3.99-0.74-8.573,2.312-11.625  l61.167-61.167c-41.542-42.99-64.292-97.74-64.292-155.292c0-129.396,114.844-234.667,256-234.667s256,105.271,256,234.667  S397.159,490.668,256.002,490.668z"/>
<path style="fill:#E6E6E6;" d="M36.419,469.335h219.583c129.396,0,234.667-95.698,234.667-213.333S385.398,42.668,256.002,42.668  S21.336,138.366,21.336,256.001c0,55.135,23.229,107.531,65.417,147.521c2.083,1.979,3.281,4.719,3.323,7.594  c0.042,2.885-1.094,5.656-3.125,7.688L36.419,469.335z"/>
<path style="opacity:0.1;enable-background:new    ;" d="M412.542,97.519c28.846,35.441,46.129,79.108,46.129,126.482  c0,117.635-105.271,213.333-234.667,213.333H68.421l-32,32h219.583c129.396,0,234.667-95.698,234.667-213.333  C490.671,193.074,460.368,136.601,412.542,97.519z"/>
<g>
	<circle style="fill:#303C42;" cx="256.001" cy="256.001" r="21.333"/>
	<circle style="fill:#303C42;" cx="149.335" cy="256.001" r="21.333"/>
	<circle style="fill:#303C42;" cx="362.668" cy="256.001" r="21.333"/>
</g>
<linearGradient id="SVGID_1_" gradientUnits="userSpaceOnUse" x1="-46.2015" y1="637.8107" x2="-24.7627" y2="627.8138" gradientTransform="matrix(21.3333 0 0 -21.3333 996.3096 13791.6934)">
	<stop offset="0" style="stop-color:#FFFFFF;stop-opacity:0.2"/>
	<stop offset="1" style="stop-color:#FFFFFF;stop-opacity:0"/>
</linearGradient>
<path style="fill:url(#SVGID_1_);" d="M256.002,490.668H10.669c-4.312,0-8.208-2.594-9.854-6.583  c-1.656-3.99-0.74-8.573,2.312-11.625l61.167-61.167c-41.542-42.99-64.292-97.74-64.292-155.292  c0-129.396,114.844-234.667,256-234.667s256,105.271,256,234.667S397.159,490.668,256.002,490.668z"/>
<g>
</g>
<g>
</g>
<g>
</g>
<g>
</g>
<g>
</g>
<g>
</g>
<g>
</g>
<g>
</g>
<g>
</g>
<g>
</g>
<g>
</g>
<g>
</g>
<g>
</g>
<g>
</g>
<g>
</g>
</svg>
