<?xml version="1.0" encoding="iso-8859-1"?>
<!-- Generator: Adobe Illustrator 19.0.0, SVG Export Plug-In . SVG Version: 6.00 Build 0)  -->
<svg xmlns="http://www.w3.org/2000/svg" xmlns:xlink="http://www.w3.org/1999/xlink" version="1.1" id="Capa_1" x="0px" y="0px" viewBox="0 0 512 512" style="enable-background:new 0 0 512 512;" xml:space="preserve">
<path style="fill:#303C42;" d="M32,469.333c-4.938,0-9.229-3.385-10.375-8.188c-1.146-4.813,1.156-9.781,5.573-12.01  c1.896-0.969,46.135-24.5,56.063-91.344C30.25,323.479,0,275.031,0,224C0,124.01,114.844,42.667,256,42.667S512,124.01,512,224  S397.156,405.333,256,405.333c-9.917,0-20.198-0.51-32.073-1.604c-91.156,64.646-187.792,65.594-191.906,65.604  C32.01,469.333,32.01,469.333,32,469.333z"/>
<path style="fill:#29B6F6;" d="M256,64C126.604,64,21.333,135.771,21.333,224c0,45.281,28.76,88.75,78.917,119.271  c3.542,2.156,5.51,6.167,5.063,10.281c-4.844,44.073-22.854,73.156-39.208,91c35.677-5.688,93.958-20.719,148.583-60.448  c2.115-1.542,4.719-2.24,7.333-1.99C234.896,383.406,245.698,384,256,384c129.396,0,234.667-71.771,234.667-160S385.396,64,256,64z"/>
<path style="opacity:0.1;enable-background:new    ;" d="M432.492,118.891c16.618,21.941,26.174,46.758,26.174,73.109  c0,88.229-105.271,160-234.667,160c-10.302,0-21.104-0.594-33.979-1.885c-2.615-0.25-5.219,0.448-7.333,1.99  c-29.581,21.514-60.12,35.617-87.674,45.085c-7.891,20.753-18.719,36.245-28.909,47.363c35.677-5.688,93.958-20.719,148.583-60.448  c2.115-1.542,4.719-2.24,7.333-1.99C234.896,383.406,245.698,384,256,384c129.396,0,234.667-71.771,234.667-160  C490.667,183.755,468.598,147.038,432.492,118.891z"/>
<linearGradient id="SVGID_1_" gradientUnits="userSpaceOnUse" x1="-46.2861" y1="638.2484" x2="-25.5234" y2="628.5665" gradientTransform="matrix(21.3333 0 0 -21.3333 996.3334 13791.667)">
	<stop offset="0" style="stop-color:#FFFFFF;stop-opacity:0.2"/>
	<stop offset="1" style="stop-color:#FFFFFF;stop-opacity:0"/>
</linearGradient>
<path style="fill:url(#SVGID_1_);" d="M32,469.333c-4.938,0-9.229-3.385-10.375-8.188c-1.146-4.813,1.156-9.781,5.573-12.01  c1.896-0.969,46.135-24.5,56.063-91.344C30.25,323.479,0,275.031,0,224C0,124.01,114.844,42.667,256,42.667S512,124.01,512,224  S397.156,405.333,256,405.333c-9.917,0-20.198-0.51-32.073-1.604c-91.156,64.646-187.792,65.594-191.906,65.604  C32.01,469.333,32.01,469.333,32,469.333z"/>
<g>
</g>
<g>
</g>
<g>
</g>
<g>
</g>
<g>
</g>
<g>
</g>
<g>
</g>
<g>
</g>
<g>
</g>
<g>
</g>
<g>
</g>
<g>
</g>
<g>
</g>
<g>
</g>
<g>
</g>
</svg>
