<?xml version="1.0" encoding="iso-8859-1"?>
<!-- Generator: Adobe Illustrator 19.0.0, SVG Export Plug-In . SVG Version: 6.00 Build 0)  -->
<svg xmlns="http://www.w3.org/2000/svg" xmlns:xlink="http://www.w3.org/1999/xlink" version="1.1" id="Capa_1" x="0px" y="0px" viewBox="0 0 512 512" style="enable-background:new 0 0 512 512;" xml:space="preserve">
<path style="fill:#303C42;" d="M256,512c-2.729,0-5.458-1.042-7.542-3.125l-82.208-82.208H64c-23.521,0-42.667-19.135-42.667-42.667  V42.667C21.333,19.135,40.479,0,64,0h384c23.521,0,42.667,19.135,42.667,42.667V384c0,23.531-19.146,42.667-42.667,42.667H345.75  l-82.208,82.208C261.458,510.958,258.729,512,256,512z"/>
<path style="fill:#1E88E5;" d="M64,21.333c-11.771,0-21.333,9.573-21.333,21.333V384c0,11.76,9.563,21.333,21.333,21.333h106.667  c2.833,0,5.542,1.125,7.542,3.125L256,486.25l77.792-77.792c2-2,4.708-3.125,7.542-3.125H448c11.771,0,21.333-9.573,21.333-21.333  V42.667c0-11.76-9.563-21.333-21.333-21.333H64z"/>
<path style="opacity:0.1;enable-background:new    ;" d="M448,362.667H341.333c-2.833,0-5.542,1.125-7.542,3.125L256,443.583  l-77.792-77.792c-2-2-4.708-3.125-7.542-3.125H64c-11.771,0-21.333-9.573-21.333-21.333V384c0,11.76,9.563,21.333,21.333,21.333  h106.667c2.833,0,5.542,1.125,7.542,3.125L256,486.25l77.792-77.792c2-2,4.708-3.125,7.542-3.125H448  c11.771,0,21.333-9.573,21.333-21.333v-42.667C469.333,353.094,459.771,362.667,448,362.667z"/>
<linearGradient id="SVGID_1_" gradientUnits="userSpaceOnUse" x1="-46.9724" y1="642.2055" x2="-22.4339" y2="630.7632" gradientTransform="matrix(21.3333 0 0 -21.3333 996.3334 13791.667)">
	<stop offset="0" style="stop-color:#FFFFFF;stop-opacity:0.2"/>
	<stop offset="1" style="stop-color:#FFFFFF;stop-opacity:0"/>
</linearGradient>
<path style="fill:url(#SVGID_1_);" d="M256,512c-2.729,0-5.458-1.042-7.542-3.125l-82.208-82.208H64  c-23.521,0-42.667-19.135-42.667-42.667V42.667C21.333,19.135,40.479,0,64,0h384c23.521,0,42.667,19.135,42.667,42.667V384  c0,23.531-19.146,42.667-42.667,42.667H345.75l-82.208,82.208C261.458,510.958,258.729,512,256,512z"/>
<g>
</g>
<g>
</g>
<g>
</g>
<g>
</g>
<g>
</g>
<g>
</g>
<g>
</g>
<g>
</g>
<g>
</g>
<g>
</g>
<g>
</g>
<g>
</g>
<g>
</g>
<g>
</g>
<g>
</g>
</svg>
