<?xml version="1.0" encoding="iso-8859-1"?>
<!-- Generator: Adobe Illustrator 19.0.0, SVG Export Plug-In . SVG Version: 6.00 Build 0)  -->
<svg xmlns="http://www.w3.org/2000/svg" xmlns:xlink="http://www.w3.org/1999/xlink" version="1.1" id="Capa_1" x="0px" y="0px" viewBox="0 0 512 512" style="enable-background:new 0 0 512 512;" xml:space="preserve">
<path style="fill:#303C42;" d="M245.354,490.661c-2.563,0-5.115-0.927-7.135-2.729c-3.583-3.208-4.563-8.438-2.406-12.74  c2.958-5.896,9.26-23.885,2.958-36.115c-4.156-8.073-13.688-13.323-28.302-15.594c-0.635-0.104-1.26-0.25-1.844-0.458  C87.583,405.12,0,321.755,0,224.005C0,112.255,114.844,21.339,256,21.339s256,90.917,256,202.667  c0,61.354-34.438,118.594-94.552,157.271c-0.323,0.271-0.677,0.531-1.042,0.771L251.125,488.964  C249.354,490.109,247.354,490.661,245.354,490.661z"/>
<path style="fill:#1E88E5;" d="M216.438,402.859c20.333,3.698,34.24,12.635,41.365,26.573c4.469,8.74,5.448,18.146,4.833,26.677  l140.885-91.135c0.365-0.313,0.76-0.594,1.167-0.854c54.646-34.698,85.979-85.76,85.979-140.115  c0-99.99-105.271-181.333-234.667-181.333S21.333,124.016,21.333,224.005c0,87.677,81.083,162.646,192.792,178.26  C214.927,402.38,215.708,402.578,216.438,402.859z"/>
<path style="opacity:0.1;enable-background:new    ;" d="M363.876,63.141c45.126,33.068,73.457,79.69,73.457,131.427  c0,54.354-31.333,105.417-85.979,140.115c-0.406,0.26-0.802,0.542-1.167,0.854l-114.12,73.822  c9.771,4.751,17.25,11.301,21.734,20.074c4.469,8.74,5.448,18.146,4.833,26.677l140.885-91.135c0.365-0.313,0.76-0.594,1.167-0.854  c54.646-34.698,85.979-85.76,85.979-140.115C490.667,154.078,439.095,93.384,363.876,63.141z"/>
<linearGradient id="SVGID_1_" gradientUnits="userSpaceOnUse" x1="-45.546" y1="640.1641" x2="-24.5301" y2="630.3577" gradientTransform="matrix(21.3333 0 0 -21.3333 996.3334 13791.667)">
	<stop offset="0" style="stop-color:#FFFFFF;stop-opacity:0.2"/>
	<stop offset="1" style="stop-color:#FFFFFF;stop-opacity:0"/>
</linearGradient>
<path style="fill:url(#SVGID_1_);" d="M245.354,490.661c-2.563,0-5.115-0.927-7.135-2.729c-3.583-3.208-4.563-8.438-2.406-12.74  c2.958-5.896,9.26-23.885,2.958-36.115c-4.156-8.073-13.688-13.323-28.302-15.594c-0.635-0.104-1.26-0.25-1.844-0.458  C87.583,405.12,0,321.755,0,224.005C0,112.255,114.844,21.339,256,21.339s256,90.917,256,202.667  c0,61.354-34.438,118.594-94.552,157.271c-0.323,0.271-0.677,0.531-1.042,0.771L251.125,488.964  C249.354,490.109,247.354,490.661,245.354,490.661z"/>
<g>
</g>
<g>
</g>
<g>
</g>
<g>
</g>
<g>
</g>
<g>
</g>
<g>
</g>
<g>
</g>
<g>
</g>
<g>
</g>
<g>
</g>
<g>
</g>
<g>
</g>
<g>
</g>
<g>
</g>
</svg>
