<?xml version="1.0" encoding="iso-8859-1"?>
<!-- Generator: Adobe Illustrator 19.0.0, SVG Export Plug-In . SVG Version: 6.00 Build 0)  -->
<svg xmlns="http://www.w3.org/2000/svg" xmlns:xlink="http://www.w3.org/1999/xlink" version="1.1" id="Capa_1" x="0px" y="0px" viewBox="0 0 512 512" style="enable-background:new 0 0 512 512;" xml:space="preserve">
<path style="fill:#303C42;" d="M256,512c-48.073,0-94.875-13.49-135.656-39.052l-91.094,22.74  c-3.677,0.896-7.573-0.177-10.229-2.917c-2.646-2.719-3.646-6.635-2.635-10.292l24.427-87.792C14.094,353.333,0,305.49,0,256  C0,114.844,114.844,0,256,0s256,114.844,256,256S397.156,512,256,512z"/>
<path style="fill:#29B6F6;" d="M122.219,450.823c2.052,0,4.083,0.594,5.823,1.729C166.271,477.49,210.51,490.667,256,490.667  c129.396,0,234.667-105.271,234.667-234.667S385.396,21.333,256,21.333S21.333,126.604,21.333,256  c0,46.885,13.802,92.156,39.896,130.906c1.75,2.583,2.271,5.813,1.438,8.813l-20.813,74.833l77.781-19.417  C120.49,450.927,121.354,450.823,122.219,450.823z"/>
<path style="opacity:0.1;enable-background:new    ;" d="M398.984,70.349C429.586,109.99,448,159.497,448,213.333  C448,342.729,342.729,448,213.333,448c-45.49,0-89.729-13.177-127.958-38.115c-1.74-1.135-3.771-1.729-5.823-1.729  c-0.865,0-1.729,0.104-2.583,0.313l-19.18,4.788l-15.935,57.296l77.781-19.417c0.854-0.208,1.719-0.313,2.583-0.313  c2.052,0,4.083,0.594,5.823,1.729C166.271,477.49,210.51,490.667,256,490.667c129.396,0,234.667-105.271,234.667-234.667  C490.667,180.44,454.618,113.299,398.984,70.349z"/>
<linearGradient id="SVGID_1_" gradientUnits="userSpaceOnUse" x1="-46.1671" y1="638.2927" x2="-24.4168" y2="628.1505" gradientTransform="matrix(21.3333 0 0 -21.3333 996.3334 13791.667)">
	<stop offset="0" style="stop-color:#FFFFFF;stop-opacity:0.2"/>
	<stop offset="1" style="stop-color:#FFFFFF;stop-opacity:0"/>
</linearGradient>
<path style="fill:url(#SVGID_1_);" d="M256,512c-48.073,0-94.875-13.49-135.656-39.052l-91.094,22.74  c-3.677,0.896-7.573-0.177-10.229-2.917c-2.646-2.719-3.646-6.635-2.635-10.292l24.427-87.792C14.094,353.333,0,305.49,0,256  C0,114.844,114.844,0,256,0s256,114.844,256,256S397.156,512,256,512z"/>
<g>
</g>
<g>
</g>
<g>
</g>
<g>
</g>
<g>
</g>
<g>
</g>
<g>
</g>
<g>
</g>
<g>
</g>
<g>
</g>
<g>
</g>
<g>
</g>
<g>
</g>
<g>
</g>
<g>
</g>
</svg>
