<?xml version="1.0" encoding="iso-8859-1"?>
<!-- Generator: Adobe Illustrator 19.0.0, SVG Export Plug-In . SVG Version: 6.00 Build 0)  -->
<svg xmlns="http://www.w3.org/2000/svg" xmlns:xlink="http://www.w3.org/1999/xlink" version="1.1" id="Capa_1" x="0px" y="0px" viewBox="0 0 512 512" style="enable-background:new 0 0 512 512;" xml:space="preserve">
<path style="fill:#303C42;" d="M96,490.667c-1.375,0-2.771-0.26-4.083-0.813c-3.979-1.646-6.583-5.542-6.583-9.854v-74.667H42.667  C19.146,405.333,0,386.198,0,362.667V64c0-23.531,19.146-42.667,42.667-42.667h426.667C492.854,21.333,512,40.469,512,64v298.667  c0,23.531-19.146,42.667-42.667,42.667H185.75l-82.208,82.208C101.5,489.583,98.771,490.667,96,490.667z"/>
<path id="SVGCleanerId_0" style="fill:#E6E6E6;" d="M42.667,42.667c-11.771,0-21.333,9.573-21.333,21.333v298.667  c0,11.76,9.563,21.333,21.333,21.333H96c5.896,0,10.667,4.771,10.667,10.667v59.583l67.125-67.125c2-2,4.708-3.125,7.542-3.125h288  c11.771,0,21.333-9.573,21.333-21.333V64c0-11.76-9.563-21.333-21.333-21.333H42.667z"/>
<g>
	<path id="SVGCleanerId_0_1_" style="fill:#E6E6E6;" d="M42.667,42.667c-11.771,0-21.333,9.573-21.333,21.333v298.667   c0,11.76,9.563,21.333,21.333,21.333H96c5.896,0,10.667,4.771,10.667,10.667v59.583l67.125-67.125c2-2,4.708-3.125,7.542-3.125h288   c11.771,0,21.333-9.573,21.333-21.333V64c0-11.76-9.563-21.333-21.333-21.333H42.667z"/>
</g>
<path style="opacity:0.1;enable-background:new    ;" d="M96,362.667C96,356.771,89.321,352,81.067,352H21.333v10.667  C21.333,374.427,34.721,384,51.2,384H96V362.667z"/>
<path style="opacity:0.1;enable-background:new    ;" d="M469.333,42.667h-10.667v288c0,11.76-9.563,21.333-21.333,21.333h-288  c-2.833,0-5.542,1.125-7.542,3.125l-35.866,35.866c0.428,1.155,0.741,2.371,0.741,3.676v59.583l67.125-67.125  c2-2,4.708-3.125,7.542-3.125h288c11.771,0,21.333-9.573,21.333-21.333V64C490.667,52.24,481.104,42.667,469.333,42.667z"/>
<linearGradient id="SVGID_1_" gradientUnits="userSpaceOnUse" x1="-47.9231" y1="641.3126" x2="-22.5094" y2="629.4563" gradientTransform="matrix(21.3333 0 0 -21.3333 996.3334 13791.667)">
	<stop offset="0" style="stop-color:#FFFFFF;stop-opacity:0.2"/>
	<stop offset="1" style="stop-color:#FFFFFF;stop-opacity:0"/>
</linearGradient>
<path style="fill:url(#SVGID_1_);" d="M96,490.667c-1.375,0-2.771-0.26-4.083-0.813c-3.979-1.646-6.583-5.542-6.583-9.854v-74.667  H42.667C19.146,405.333,0,386.198,0,362.667V64c0-23.531,19.146-42.667,42.667-42.667h426.667C492.854,21.333,512,40.469,512,64  v298.667c0,23.531-19.146,42.667-42.667,42.667H185.75l-82.208,82.208C101.5,489.583,98.771,490.667,96,490.667z"/>
<g>
</g>
<g>
</g>
<g>
</g>
<g>
</g>
<g>
</g>
<g>
</g>
<g>
</g>
<g>
</g>
<g>
</g>
<g>
</g>
<g>
</g>
<g>
</g>
<g>
</g>
<g>
</g>
<g>
</g>
</svg>
