<?xml version="1.0" encoding="iso-8859-1"?>
<!-- Generator: Adobe Illustrator 19.0.0, SVG Export Plug-In . SVG Version: 6.00 Build 0)  -->
<svg xmlns="http://www.w3.org/2000/svg" xmlns:xlink="http://www.w3.org/1999/xlink" version="1.1" id="Capa_1" x="0px" y="0px" viewBox="0 0 469.333 469.333" style="enable-background:new 0 0 469.333 469.333;" xml:space="preserve">
<path style="fill:#303C42;" d="M10.667,469.333c-1.375,0-2.76-0.26-4.083-0.813C2.594,466.875,0,462.979,0,458.667v-416  C0,19.135,19.135,0,42.667,0h384c23.531,0,42.667,19.135,42.667,42.667V320c0,23.531-19.135,42.667-42.667,42.667H121.75  L18.208,466.208C16.167,468.25,13.438,469.333,10.667,469.333z"/>
<path style="fill:#1E88E5;" d="M42.667,21.333c-11.76,0-21.333,9.573-21.333,21.333v390.25l88.458-88.458  c2-2,4.708-3.125,7.542-3.125h309.333c11.76,0,21.333-9.573,21.333-21.333V42.667c0-11.76-9.573-21.333-21.333-21.333H42.667z"/>
<path style="opacity:0.1;enable-background:new    ;" d="M426.667,21.333H416V288c0,11.76-9.573,21.333-21.333,21.333H85.333  c-2.833,0-5.542,1.125-7.542,3.125l-56.458,56.458v64l88.458-88.458c2-2,4.708-3.125,7.542-3.125h309.333  c11.76,0,21.333-9.573,21.333-21.333V42.667C448,30.906,438.427,21.333,426.667,21.333z"/>
<linearGradient id="SVGID_1_" gradientUnits="userSpaceOnUse" x1="-68.7931" y1="618.8268" x2="-45.4033" y2="607.921" gradientTransform="matrix(21.3333 0 0 -21.3333 1430.1112 13315.2227)">
	<stop offset="0" style="stop-color:#FFFFFF;stop-opacity:0.2"/>
	<stop offset="1" style="stop-color:#FFFFFF;stop-opacity:0"/>
</linearGradient>
<path style="fill:url(#SVGID_1_);" d="M10.667,469.333c-1.375,0-2.76-0.26-4.083-0.813C2.594,466.875,0,462.979,0,458.667v-416  C0,19.135,19.135,0,42.667,0h384c23.531,0,42.667,19.135,42.667,42.667V320c0,23.531-19.135,42.667-42.667,42.667H121.75  L18.208,466.208C16.167,468.25,13.438,469.333,10.667,469.333z"/>
<g>
</g>
<g>
</g>
<g>
</g>
<g>
</g>
<g>
</g>
<g>
</g>
<g>
</g>
<g>
</g>
<g>
</g>
<g>
</g>
<g>
</g>
<g>
</g>
<g>
</g>
<g>
</g>
<g>
</g>
</svg>
